<?xml version="1.0"?>

<svg xmlns="http://www.w3.org/2000/svg"  x="0px" y="0px"
     viewBox="0 0 58.007 58.007" style="enable-background:new 0 0 58.007 58.007;" xml:space="preserve">
<!-- coins -->
<g class="sprite" id="coins">
	<path id="XMLID_143_" style="fill:#FCC62D;" d="M52.003,29.211v1.238c0,6.932-11.641,12.551-26,12.551
		c-7.926,0-15.019-1.714-19.788-4.414C7.823,44.831,18.751,50,32.003,50c14.359,0,26-6.068,26-13
		C58.003,33.952,55.747,31.266,52.003,29.211"/>
	<path id="XMLID_142_" style="fill:#E4AF18;" d="M32.003,50c-14.359,0-26-6.068-26-13v8.448c0,6.932,11.641,12.552,26,12.552
		s26-5.62,26-12.552V37C58.003,43.932,46.362,50,32.003,50"/>
	<path id="XMLID_141_" style="fill:#CE9912;" d="M9.003,51.349c0.59,0.539,1.259,1.055,2,1.545v-8.291
		c-0.741-0.51-1.41-1.045-2-1.603V51.349z"/>
	<path id="XMLID_140_" style="fill:#CE9912;" d="M53.003,44.603v8.291c0.741-0.489,1.41-1.006,2-1.545V43
		C54.414,43.558,53.745,44.093,53.003,44.603"/>
	<path id="XMLID_139_" style="fill:#CE9912;" d="M13.003,54.06c0.632,0.327,1.3,0.636,2,0.929v-8.193
		c-0.7-0.308-1.368-0.633-2-0.975V54.06z"/>
	<path id="XMLID_138_" style="fill:#CE9912;" d="M49.003,54.988c0.7-0.292,1.368-0.602,2-0.929V45.82
		c-0.632,0.342-1.3,0.668-2,0.975V54.988z"/>
	<path id="XMLID_137_" style="fill:#CE9912;" d="M17.003,55.745c0.646,0.221,1.313,0.427,2,0.619V48.25
		c-0.687-0.204-1.354-0.423-2-0.656V55.745z"/>
	<path id="XMLID_136_" style="fill:#CE9912;" d="M45.003,56.364c0.687-0.192,1.354-0.398,2-0.619v-8.151
		c-0.646,0.233-1.313,0.452-2,0.656V56.364z"/>
	<path id="XMLID_135_" style="fill:#CE9912;" d="M22.003,57.084c0.653,0.132,1.321,0.25,2,0.355v-8.044
		c-0.679-0.113-1.347-0.239-2-0.379V57.084z"/>
	<path id="XMLID_134_" style="fill:#CE9912;" d="M40.003,57.439c0.679-0.106,1.347-0.224,2-0.355v-8.069
		c-0.653,0.14-1.321,0.266-2,0.38V57.439z"/>
	<path id="XMLID_133_" style="fill:#CE9912;" d="M28.003,57.899c0.658,0.049,1.326,0.083,2,0.107v-8.003
		c-0.674-0.026-1.342-0.062-2-0.115V57.899z"/>
	<path id="XMLID_132_" style="fill:#CE9912;" d="M34.003,58.007c0.674-0.025,1.342-0.058,2-0.107v-8.012
		c-0.658,0.053-1.326,0.089-2,0.116V58.007z"/>
	<path id="XMLID_131_" style="fill:#E4AF18;" d="M26.003,34.993c-14.359,0-26-6.068-26-13v8.448c0,6.932,11.641,12.552,26,12.552
		s26-5.62,26-12.552v-8.448C52.003,28.925,40.362,34.993,26.003,34.993"/>
	<path id="XMLID_130_" style="fill:#CE9912;" d="M3.003,36.342c0.59,0.539,1.259,1.055,2,1.545v-8.291
		c-0.741-0.51-1.41-1.045-2-1.602V36.342z"/>
	<path id="XMLID_129_" style="fill:#CE9912;" d="M47.003,29.596v8.291c0.741-0.489,1.41-1.006,2-1.545v-8.349
		C48.414,28.551,47.745,29.086,47.003,29.596"/>
	<path id="XMLID_128_" style="fill:#CE9912;" d="M7.003,39.053c0.632,0.327,1.3,0.636,2,0.929v-8.193
		c-0.7-0.308-1.368-0.633-2-0.975V39.053z"/>
	<path id="XMLID_127_" style="fill:#CE9912;" d="M43.003,39.981c0.7-0.292,1.368-0.601,2-0.929v-8.239
		c-0.632,0.342-1.3,0.668-2,0.975V39.981z"/>
	<path id="XMLID_126_" style="fill:#CE9912;" d="M11.003,40.738c0.646,0.221,1.313,0.427,2,0.619v-8.114
		c-0.687-0.204-1.354-0.423-2-0.656V40.738z"/>
	<path id="XMLID_125_" style="fill:#CE9912;" d="M39.003,41.357c0.687-0.192,1.354-0.398,2-0.619v-8.151
		c-0.646,0.233-1.313,0.452-2,0.656V41.357z"/>
	<path id="XMLID_124_" style="fill:#CE9912;" d="M16.003,42.077c0.653,0.132,1.321,0.25,2,0.355v-8.044
		c-0.679-0.113-1.347-0.239-2-0.379V42.077z"/>
	<path id="XMLID_123_" style="fill:#CE9912;" d="M34.003,42.433c0.679-0.106,1.347-0.224,2-0.355v-8.069
		c-0.653,0.14-1.321,0.266-2,0.38V42.433z"/>
	<path id="XMLID_122_" style="fill:#CE9912;" d="M22.003,42.893c0.658,0.049,1.326,0.083,2,0.107v-8.003
		c-0.674-0.026-1.342-0.062-2-0.115V42.893z"/>
	<path id="XMLID_121_" style="fill:#CE9912;" d="M28.003,43c0.674-0.025,1.342-0.058,2-0.107v-8.012
		c-0.658,0.053-1.326,0.089-2,0.116V43z"/>
	<path id="XMLID_120_" style="fill:#FFD949;" d="M51.32,33.302C48.643,38.858,38.329,43,26.003,43c-4.604,0-8.926-0.58-12.677-1.593
		c3.628,2.463,10.085,4.559,18.677,4.559c13.682,0,22-5.311,22-8.966C54.003,35.78,53.064,34.486,51.32,33.302"/>
	<path id="XMLID_119_" style="fill:#FFD949;" d="M31.003,33c-14.359,0-26-5.62-26-12.552v-5.652c-3.141,1.969-5,4.438-5,7.204
		c0,6.932,11.641,13,26,13c6.914,0,13.192-1.409,17.849-3.642C40.061,32.401,35.678,33,31.003,33"/>
	<path id="XMLID_118_" style="fill:#E4AF18;" d="M31.003,24.993c-14.359,0-26-6.068-26-13v8.448c0,6.932,11.641,12.552,26,12.552
		c14.359,0,26-5.62,26-12.552v-8.448C57.003,18.925,45.362,24.993,31.003,24.993"/>
	<path id="XMLID_117_" style="fill:#CE9912;" d="M8.003,26.342c0.59,0.539,1.259,1.055,2,1.545v-8.291
		c-0.741-0.51-1.41-1.045-2-1.602V26.342z"/>
	<path id="XMLID_116_" style="fill:#CE9912;" d="M52.003,19.596v8.291c0.741-0.489,1.41-1.006,2-1.545v-8.349
		C53.414,18.551,52.745,19.086,52.003,19.596"/>
	<path id="XMLID_115_" style="fill:#CE9912;" d="M12.003,29.053c0.632,0.327,1.3,0.636,2,0.929v-8.193
		c-0.7-0.308-1.368-0.633-2-0.975V29.053z"/>
	<path id="XMLID_114_" style="fill:#CE9912;" d="M48.003,29.981c0.7-0.292,1.368-0.601,2-0.929v-8.239
		c-0.632,0.342-1.3,0.668-2,0.975V29.981z"/>
	<path id="XMLID_113_" style="fill:#CE9912;" d="M16.003,30.738c0.646,0.221,1.313,0.427,2,0.619v-8.114
		c-0.687-0.204-1.354-0.423-2-0.656V30.738z"/>
	<path id="XMLID_112_" style="fill:#CE9912;" d="M44.003,31.357c0.687-0.192,1.354-0.398,2-0.619v-8.151
		c-0.646,0.233-1.313,0.452-2,0.656V31.357z"/>
	<path id="XMLID_111_" style="fill:#CE9912;" d="M21.003,32.077c0.653,0.132,1.321,0.25,2,0.355v-8.044
		c-0.679-0.113-1.347-0.239-2-0.379V32.077z"/>
	<path id="XMLID_110_" style="fill:#CE9912;" d="M39.003,32.433c0.679-0.106,1.347-0.224,2-0.355v-8.069
		c-0.653,0.14-1.321,0.266-2,0.38V32.433z"/>
	<path id="XMLID_109_" style="fill:#CE9912;" d="M27.003,32.893c0.658,0.049,1.326,0.083,2,0.107v-8.003
		c-0.674-0.026-1.342-0.062-2-0.115V32.893z"/>
	<path id="XMLID_108_" style="fill:#CE9912;" d="M33.003,33c0.674-0.025,1.342-0.058,2-0.107v-8.012
		c-0.658,0.053-1.326,0.089-2,0.116V33z"/>
	<path id="XMLID_107_" style="fill:#FCC62D;" d="M57.003,12c0,6.932-11.641,13-26,13c-14.359,0-26-6.068-26-13
		c0-6.932,11.641-12,26-12C45.362,0,57.003,5.068,57.003,12"/>
	<path id="XMLID_106_" style="fill:#FFD949;" d="M31.003,20.966c-13.682,0-22-5.31-22-8.966c0-3.655,8.318-9,22-9
		c13.682,0,22,5.345,22,9C53.003,15.656,44.685,20.966,31.003,20.966"/>
	<path id="XMLID_105_" style="fill:#F0C41B;" d="M37.784,13.359c0.82-0.174,1.301-0.68,1.124-1.257l-0.19-0.616
		c-0.139-0.453-0.68-0.831-1.343-1.019c-0.902-1.927-3.202-2.625-6.618-2.625c-0.162,0-0.32,0.004-0.476,0.01
		c-1.166,0.048-2.329-0.064-3.236-0.396c-0.37-0.135-0.671-0.276-0.87-0.423c-0.09-0.066-0.308-0.024-0.308,0.06
		c0,0.146,0.011,0.319,0.043,0.511c0.124,0.747-0.024,0.635-0.762,1.38c-0.428,0.434-0.769,0.934-1.016,1.486
		c-0.659,0.189-1.197,0.566-1.336,1.017l-0.19,0.616c-0.177,0.577,0.304,1.083,1.124,1.257c0.234,1.476,1.237,2.772,3.424,3.486
		l-0.12,1.037c-0.032,0.277-0.271,0.533-0.619,0.659l-4.411,1.592C24.58,20.674,27.516,21,30.757,21
		c3.196,0,6.095-0.317,8.645-0.842l-4.315-1.613c-0.341-0.128-0.575-0.382-0.606-0.654l-0.121-1.045
		C36.547,16.132,37.55,14.835,37.784,13.359"/>
</g>

<!-- cart-1 -->
<g class="sprite" id="cart-1">
  <g>
    <path style="fill:#ECF0F1;" d="M15,39.5l-5.167-27H58v23.012c0,2.202-1.785,3.988-3.988,3.988H15"/>
    <path style="fill:#556080;" d="M54.013,40.5h-39.84l-5.55-29H59v24.013C59,38.263,56.763,40.5,54.013,40.5z M15.827,38.5h38.186
    C55.66,38.5,57,37.16,57,35.513V13.5H11.043L15.827,38.5z"/>
  </g>
  <g>
    <circle style="fill:#FFFFFF;" cx="22" cy="48.5" r="5"/>
    <path style="fill:#556080;" d="M22,54.5c-3.309,0-6-2.691-6-6s2.691-6,6-6s6,2.691,6,6S25.309,54.5,22,54.5z M22,44.5
      c-2.206,0-4,1.794-4,4s1.794,4,4,4s4-1.794,4-4S24.206,44.5,22,44.5z"/>
  </g>
  <g>
    <circle style="fill:#FFFFFF;" cx="45" cy="48.5" r="5"/>
    <path style="fill:#556080;" d="M45,54.5c-3.309,0-6-2.691-6-6s2.691-6,6-6s6,2.691,6,6S48.309,54.5,45,54.5z M45,44.5
      c-2.206,0-4,1.794-4,4s1.794,4,4,4s4-1.794,4-4S47.206,44.5,45,44.5z"/>
  </g>
  <path style="fill:#556080;" d="M55,48.5h-5.101c-0.553,0-1-0.447-1-1s0.447-1,1-1H55c0.553,0,1,0.447,1,1S55.553,48.5,55,48.5z"/>
  <path style="fill:#556080;" d="M40.101,48.5H26.899c-0.553,0-1-0.447-1-1s0.447-1,1-1h13.201c0.553,0,1,0.447,1,1
    S40.653,48.5,40.101,48.5z"/>
  <path style="fill:#556080;" d="M9.832,13.5c-0.48,0-0.904-0.347-0.985-0.836L8.152,8.5H6c-0.553,0-1-0.447-1-1s0.447-1,1-1h3.848
    l0.972,5.836c0.091,0.545-0.277,1.06-0.822,1.15C9.941,13.496,9.887,13.5,9.832,13.5z"/>
  <path style="fill:#556080;" d="M59,20.5h-9v-9H39v9h-7v-9H21v9H10.347l2.104,11H21v8.998l11-0.003V31.5h7v8.992l11-0.003V31.5h9
    V20.5z M41,13.5h7v7h-7V13.5z M48,22.5v7h-7v-7H48z M23,13.5h7v7h-7V13.5z M30,22.5v7h-7v-7H30z M14.104,29.5l-1.34-7H21v7H14.104z
     M30,38.495l-7,0.003V31.5h7V38.495z M32,29.5v-7h7v7H32z M48,38.489l-7,0.003V31.5h7V38.489z M57,29.5h-7v-7h7V29.5z"/>
  <path style="fill:#556080;" d="M17.101,48.5H14c-1.406,0-2.758-0.603-3.707-1.652c-0.947-1.047-1.409-2.453-1.268-3.858
    c0.255-2.518,2.522-4.489,5.163-4.489c0.553,0,1,0.447,1,1s-0.447,1-1,1c-1.627,0-3.021,1.182-3.173,2.69
    c-0.087,0.855,0.184,1.678,0.761,2.316C12.348,46.138,13.158,46.5,14,46.5h3.101c0.553,0,1,0.447,1,1S17.653,48.5,17.101,48.5z"/>
  <circle style="fill:#E64C3C;" cx="3" cy="7.5" r="3"/>
</g>

<!-- credit-card-1 -->
<g class="sprite" id="credit-card-1">
	<path id="XMLID_115_" style="fill:#F0C41B;" d="M54.783,50H3.217C1.44,50,0,48.56,0,46.783V11.217C0,9.44,1.44,8,3.217,8h51.566
		C56.56,8,58,9.44,58,11.217v35.566C58,48.56,56.56,50,54.783,50"/>
	<rect id="XMLID_114_" y="13" style="fill:#806F5E;" width="58" height="8"/>
	<path id="XMLID_113_" style="fill:#F9EAB0;" d="M15,28H6c-0.552,0-1-0.448-1-1s0.448-1,1-1h9c0.552,0,1,0.448,1,1S15.552,28,15,28"
		/>
	<path id="XMLID_112_" style="fill:#F9EAB0;" d="M28,28h-9c-0.552,0-1-0.448-1-1s0.448-1,1-1h9c0.552,0,1,0.448,1,1S28.552,28,28,28
		"/>
	<path id="XMLID_111_" style="fill:#F9EAB0;" d="M7,33H6c-0.552,0-1-0.448-1-1s0.448-1,1-1h1c0.552,0,1,0.448,1,1S7.552,33,7,33"/>
	<path id="XMLID_110_" style="fill:#F9EAB0;" d="M13,33h-2c-0.552,0-1-0.448-1-1s0.448-1,1-1h2c0.552,0,1,0.448,1,1S13.552,33,13,33
		"/>
	<path id="XMLID_109_" style="fill:#F9EAB0;" d="M18,33h-1c-0.552,0-1-0.448-1-1s0.448-1,1-1h1c0.552,0,1,0.448,1,1S18.552,33,18,33
		"/>
	<path id="XMLID_108_" style="fill:#F9EAB0;" d="M24,33h-2c-0.552,0-1-0.448-1-1s0.448-1,1-1h2c0.552,0,1,0.448,1,1S24.552,33,24,33
		"/>
	<path id="XMLID_107_" style="fill:#F9EAB0;" d="M28,33c-0.26,0-0.52-0.11-0.71-0.29C27.11,32.52,27,32.27,27,32
		c0-0.26,0.11-0.52,0.29-0.71c0.37-0.37,1.04-0.37,1.42,0C28.89,31.48,29,31.74,29,32s-0.11,0.52-0.29,0.71
		C28.52,32.89,28.26,33,28,33"/>
	<path id="XMLID_106_" style="fill:#DB2215;" d="M46,39c0,3.314-2.686,6-6,6s-6-2.686-6-6s2.686-6,6-6S46,35.686,46,39"/>
	<path id="XMLID_105_" style="fill:#245EA9;" d="M53,39c0,3.314-2.686,6-6,6s-6-2.686-6-6s2.686-6,6-6S53,35.686,53,39"/>
</g>

<!-- credit-card-2 -->
<g class="sprite" id="credit-card-2">
	<path id="XMLID_128_" style="fill:#CCB375;" d="M54.783,50H3.217C1.439,50,0,48.56,0,46.783V11.217C0,9.44,1.439,8,3.217,8h51.566
		C56.56,8,58,9.44,58,11.217v35.566C58,48.56,56.56,50,54.783,50"/>
	<path id="XMLID_127_" style="fill:#7A693C;" d="M15,36H6c-0.553,0-1,0.448-1,1s0.447,1,1,1h9c0.553,0,1-0.448,1-1S15.553,36,15,36"
		/>
	<path id="XMLID_126_" style="fill:#7A693C;" d="M29,37c0-0.552-0.447-1-1-1h-9c-0.553,0-1,0.448-1,1s0.447,1,1,1h9
		C28.553,38,29,37.552,29,37"/>
	<path id="XMLID_125_" style="fill:#7A693C;" d="M7,41H6c-0.553,0-1,0.448-1,1s0.447,1,1,1h1c0.553,0,1-0.448,1-1S7.553,41,7,41"/>
	<path id="XMLID_124_" style="fill:#7A693C;" d="M13,41h-2c-0.553,0-1,0.448-1,1s0.447,1,1,1h2c0.553,0,1-0.448,1-1S13.553,41,13,41
		"/>
	<path id="XMLID_123_" style="fill:#7A693C;" d="M18,41h-1c-0.553,0-1,0.448-1,1s0.447,1,1,1h1c0.553,0,1-0.448,1-1S18.553,41,18,41
		"/>
	<path id="XMLID_122_" style="fill:#7A693C;" d="M24,41h-2c-0.553,0-1,0.448-1,1s0.447,1,1,1h2c0.553,0,1-0.448,1-1S24.553,41,24,41
		"/>
	<path id="XMLID_121_" style="fill:#7A693C;" d="M27.29,41.29C27.109,41.48,27,41.74,27,42c0,0.26,0.109,0.52,0.29,0.71
		C27.479,42.89,27.74,43,28,43s0.519-0.11,0.71-0.29C28.89,42.52,29,42.26,29,42c0-0.26-0.11-0.52-0.29-0.71
		C28.33,40.92,27.648,40.92,27.29,41.29"/>
	<path id="XMLID_120_" style="fill:#E74C3D;" d="M46,39c0,3.314-2.686,6-6,6s-6-2.686-6-6s2.686-6,6-6S46,35.686,46,39"/>
	<path id="XMLID_119_" style="fill:#F0C41B;" d="M53,39c0,3.314-2.686,6-6,6s-6-2.686-6-6s2.686-6,6-6S53,35.686,53,39"/>
	<path id="XMLID_118_" style="fill:#F0C41B;" d="M20.745,28H7.255C6.563,28,6,27.438,6,26.745v-9.49C6,16.562,6.563,16,7.255,16
		h13.49C21.438,16,22,16.562,22,17.255v9.49C22,27.438,21.438,28,20.745,28"/>
	<path id="XMLID_115_" style="fill:#F3D55C;" d="M20.745,29H7.255C6.012,29,5,27.988,5,26.745v-9.49C5,16.012,6.012,15,7.255,15
		h13.49C21.988,15,23,16.012,23,17.255v9.49C23,27.988,21.988,29,20.745,29 M7.255,17C7.113,17,7,17.114,7,17.255v9.49
		C7,26.886,7.113,27,7.255,27h13.49C20.886,27,21,26.886,21,26.745v-9.49C21,17.114,20.886,17,20.745,17H7.255z"/>
	<path id="XMLID_114_" style="fill:#F0C41B;" d="M22,17.255C22,16.562,21.438,16,20.745,16H16h-2.745C12.561,16,12,16.562,12,17.255
		V20v6.745C12,27.438,12.561,28,13.255,28h1.49C15.438,28,16,27.438,16,26.745v-5.49C16,20.562,16.562,20,17.255,20h3.49
		C21.438,20,22,19.438,22,18.745V17.255z"/>
	<path id="XMLID_111_" style="fill:#F3D55C;" d="M14.745,29h-1.49C12.012,29,11,27.988,11,26.745v-9.49
		C11,16.012,12.012,15,13.255,15h7.49C21.988,15,23,16.012,23,17.255v1.49C23,19.988,21.988,21,20.745,21h-3.49
		C17.113,21,17,21.114,17,21.255v5.49C17,27.988,15.988,29,14.745,29 M13.255,17C13.113,17,13,17.114,13,17.255v9.49
		C13,26.886,13.113,27,13.255,27h1.49C14.886,27,15,26.886,15,26.745v-5.49C15,20.012,16.012,19,17.255,19h3.49
		C20.886,19,21,18.886,21,18.745v-1.49C21,17.114,20.886,17,20.745,17H13.255z"/>
	<line id="XMLID_110_" style="fill:#F0C41B;" x1="16" y1="24" x2="22" y2="24"/>
	<path id="XMLID_109_" style="fill:#F3D55C;" d="M22,25h-6c-0.553,0-1-0.448-1-1s0.447-1,1-1h6c0.553,0,1,0.448,1,1S22.553,25,22,25
		"/>
	<line id="XMLID_108_" style="fill:#F0C41B;" x1="12" y1="20" x2="6" y2="20"/>
	<path id="XMLID_107_" style="fill:#F3D55C;" d="M12,21H6c-0.553,0-1-0.448-1-1s0.447-1,1-1h6c0.553,0,1,0.448,1,1S12.553,21,12,21"
		/>
	<line id="XMLID_106_" style="fill:#F0C41B;" x1="12" y1="24" x2="6" y2="24"/>
	<path id="XMLID_105_" style="fill:#F3D55C;" d="M12,25H6c-0.553,0-1-0.448-1-1s0.447-1,1-1h6c0.553,0,1,0.448,1,1S12.553,25,12,25"
		/>
</g>

<!-- credit-card-3 -->
<g class="sprite" id="credit-card-3">
	<path id="XMLID_130_" style="fill:#6BBEA1;" d="M54.783,50H3.217C1.439,50,0,48.56,0,46.783V11.217C0,9.44,1.439,8,3.217,8h51.566
		C56.56,8,58,9.44,58,11.217v35.566C58,48.56,56.56,50,54.783,50"/>
	<rect id="XMLID_129_" x="5" y="37" style="fill:#498679;" width="9" height="6"/>
	<rect id="XMLID_128_" x="18" y="37" style="fill:#498679;" width="9" height="6"/>
	<rect id="XMLID_127_" x="31" y="37" style="fill:#498679;" width="9" height="6"/>
	<rect id="XMLID_126_" x="44" y="37" style="fill:#498679;" width="9" height="6"/>
	<path id="XMLID_125_" style="fill:#F0C41B;" d="M19.745,26H6.255C5.563,26,5,25.438,5,24.745v-9.49C5,14.562,5.563,14,6.255,14
		h13.49C20.438,14,21,14.562,21,15.255v9.49C21,25.438,20.438,26,19.745,26"/>
	<path id="XMLID_122_" style="fill:#F3D55C;" d="M19.745,27H6.255C5.012,27,4,25.988,4,24.745v-9.49C4,14.012,5.012,13,6.255,13
		h13.49C20.988,13,22,14.012,22,15.255v9.49C22,25.988,20.988,27,19.745,27 M6.255,15C6.113,15,6,15.114,6,15.255v9.49
		C6,24.886,6.113,25,6.255,25h13.49C19.886,25,20,24.886,20,24.745v-9.49C20,15.114,19.886,15,19.745,15H6.255z"/>
	<path id="XMLID_121_" style="fill:#F0C41B;" d="M21,15.255C21,14.561,20.438,14,19.745,14H15h-2.745C11.561,14,11,14.561,11,15.255
		V18v6.745C11,25.438,11.561,26,12.255,26h1.49C14.438,26,15,25.438,15,24.745v-5.49C15,18.562,15.561,18,16.255,18h3.49
		C20.438,18,21,17.438,21,16.745V15.255z"/>
	<path id="XMLID_118_" style="fill:#F3D55C;" d="M13.745,27h-1.49C11.012,27,10,25.988,10,24.745v-9.49
		C10,14.012,11.012,13,12.255,13h7.49C20.988,13,22,14.012,22,15.255v1.49C22,17.988,20.988,19,19.745,19h-3.49
		C16.113,19,16,19.114,16,19.255v5.49C16,25.988,14.988,27,13.745,27 M12.255,15C12.113,15,12,15.114,12,15.255v9.49
		C12,24.886,12.113,25,12.255,25h1.49C13.886,25,14,24.886,14,24.745v-5.49C14,18.012,15.012,17,16.255,17h3.49
		C19.886,17,20,16.886,20,16.745v-1.49C20,15.114,19.886,15,19.745,15H12.255z"/>
	<line id="XMLID_117_" style="fill:#F0C41B;" x1="15" y1="22" x2="21" y2="22"/>
	<path id="XMLID_116_" style="fill:#F3D55C;" d="M21,23h-6c-0.553,0-1-0.448-1-1s0.447-1,1-1h6c0.553,0,1,0.448,1,1S21.553,23,21,23
		"/>
	<line id="XMLID_115_" style="fill:#F0C41B;" x1="11" y1="18" x2="5" y2="18"/>
	<path id="XMLID_114_" style="fill:#F3D55C;" d="M11,19H5c-0.553,0-1-0.448-1-1s0.447-1,1-1h6c0.553,0,1,0.448,1,1S11.553,19,11,19"
		/>
	<line id="XMLID_113_" style="fill:#F0C41B;" x1="11" y1="22" x2="5" y2="22"/>
	<path id="XMLID_112_" style="fill:#F3D55C;" d="M11,23H5c-0.553,0-1-0.448-1-1s0.447-1,1-1h6c0.553,0,1,0.448,1,1S11.553,23,11,23"
		/>
	<path id="XMLID_111_" style="fill:#498679;" d="M40,13h-9c-0.553,0-1,0.448-1,1s0.447,1,1,1h9c0.553,0,1-0.448,1-1S40.553,13,40,13
		"/>
	<path id="XMLID_110_" style="fill:#498679;" d="M54,14c0-0.552-0.447-1-1-1h-9c-0.553,0-1,0.448-1,1s0.447,1,1,1h9
		C53.553,15,54,14.552,54,14"/>
	<path id="XMLID_109_" style="fill:#498679;" d="M32,18h-1c-0.553,0-1,0.448-1,1s0.447,1,1,1h1c0.553,0,1-0.448,1-1S32.553,18,32,18
		"/>
	<path id="XMLID_108_" style="fill:#498679;" d="M38,18h-2c-0.553,0-1,0.448-1,1s0.447,1,1,1h2c0.553,0,1-0.448,1-1S38.553,18,38,18
		"/>
	<path id="XMLID_107_" style="fill:#498679;" d="M43,18h-1c-0.553,0-1,0.448-1,1s0.447,1,1,1h1c0.553,0,1-0.448,1-1S43.553,18,43,18
		"/>
	<path id="XMLID_106_" style="fill:#498679;" d="M49,18h-2c-0.553,0-1,0.448-1,1s0.447,1,1,1h2c0.553,0,1-0.448,1-1S49.553,18,49,18
		"/>
	<path id="XMLID_105_" style="fill:#498679;" d="M52.29,18.29C52.109,18.48,52,18.74,52,19c0,0.26,0.109,0.52,0.29,0.71
		C52.479,19.89,52.729,20,53,20c0.26,0,0.519-0.11,0.71-0.29C53.89,19.52,54,19.26,54,19c0-0.26-0.11-0.52-0.29-0.71
		C53.33,17.92,52.66,17.92,52.29,18.29"/>
</g>

<!-- graph -->
<g class="sprite" id="graph">
<g>
		<path style="fill:#9777A8;" d="M18.306,33.28l-5.013,5.013c-0.391,0.391-0.391,1.023,0,1.414C13.488,39.902,13.744,40,14,40
			s0.512-0.098,0.707-0.293l5.013-5.013c0.391-0.391,0.391-1.023,0-1.414S18.696,32.89,18.306,33.28z"/>
		<path style="fill:#9777A8;" d="M27.694,33.28c-0.391-0.391-1.023-0.391-1.414,0s-0.391,1.023,0,1.414l6.025,6.025
			c0.195,0.195,0.451,0.293,0.707,0.293s0.512-0.098,0.707-0.293c0.391-0.391,0.391-1.023,0-1.414L27.694,33.28z"/>
		<path style="fill:#9777A8;" d="M50.707,30.293c-0.391-0.391-1.023-0.391-1.414,0l-10,10c-0.391,0.391-0.391,1.023,0,1.414
			C39.488,41.902,39.744,42,40,42s0.512-0.098,0.707-0.293l10-10C51.098,31.316,51.098,30.684,50.707,30.293z"/>
	</g>
	<path style="fill:#556080;" d="M3,60c-0.553,0-1-0.447-1-1V1c0-0.553,0.447-1,1-1s1,0.447,1,1v58C4,59.553,3.553,60,3,60z"/>
	<path style="fill:#556080;" d="M59,58H1c-0.553,0-1-0.447-1-1s0.447-1,1-1h58c0.553,0,1,0.447,1,1S59.553,58,59,58z"/>
	<path style="fill:#BDC3C7;" d="M9,29H7c-0.553,0-1-0.447-1-1s0.447-1,1-1h2c0.553,0,1,0.447,1,1S9.553,29,9,29z"/>
	<path style="fill:#BDC3C7;" d="M9,25H7c-0.553,0-1-0.447-1-1s0.447-1,1-1h2c0.553,0,1,0.447,1,1S9.553,25,9,25z"/>
	<path style="fill:#BDC3C7;" d="M9,21H7c-0.553,0-1-0.447-1-1s0.447-1,1-1h2c0.553,0,1,0.447,1,1S9.553,21,9,21z"/>
	<path style="fill:#BDC3C7;" d="M9,17H7c-0.553,0-1-0.447-1-1s0.447-1,1-1h2c0.553,0,1,0.447,1,1S9.553,17,9,17z"/>
	<path style="fill:#BDC3C7;" d="M9,13H7c-0.553,0-1-0.447-1-1s0.447-1,1-1h2c0.553,0,1,0.447,1,1S9.553,13,9,13z"/>
	<path style="fill:#BDC3C7;" d="M9,9H7C6.447,9,6,8.553,6,8s0.447-1,1-1h2c0.553,0,1,0.447,1,1S9.553,9,9,9z"/>
	<path style="fill:#BDC3C7;" d="M9,5H7C6.447,5,6,4.553,6,4s0.447-1,1-1h2c0.553,0,1,0.447,1,1S9.553,5,9,5z"/>
	<circle style="fill:#F29C1F;" cx="11.012" cy="42.988" r="5"/>
	<circle style="fill:#71C285;" cx="23" cy="31" r="5"/>
	<circle style="fill:#71C285;" cx="54" cy="28" r="5"/>
	<circle style="fill:#F29C1F;" cx="36" cy="44" r="5"/>
</g>

<!-- graph-1 -->
<g class="sprite" id="graph-1">
	<path style="fill:#48A0DC;" d="M46.534,54H7.466C3.343,54,0,50.657,0,46.534V7.466C0,3.343,3.343,0,7.466,0h39.067
		C50.657,0,54,3.343,54,7.466v39.067C54,50.657,50.657,54,46.534,54z"/>
	<g>
		<path style="fill:#FFFFFF;" d="M37,16c-0.553,0-1,0.447-1,1s0.447,1,1,1h6.586L29.119,32.467l1.414,1.414L45,19.414V26
			c0,0.553,0.447,1,1,1s1-0.447,1-1V16H37z"/>
		
			<rect x="10.514" y="26.414" transform="matrix(-0.7071 -0.7071 0.7071 -0.7071 12.0501 59.8194)" style="fill:#FFFFFF;" width="15.799" height="2"/>
		<polygon style="fill:#FFFFFF;" points="0,27.586 0,30.414 7.879,22.535 6.465,21.121 		"/>
	</g>
	<g>
		<path style="fill:#556080;" d="M27,31c-2.757,0-5,2.243-5,5s2.243,5,5,5s5-2.243,5-5S29.757,31,27,31z"/>
		<path style="fill:#556080;" d="M10,14c-2.757,0-5,2.243-5,5s2.243,5,5,5s5-2.243,5-5S12.757,14,10,14z"/>
	</g>
</g>

<!-- price-tag -->
<g class="sprite" id="price-tag">
	<path style="fill:#46B29D;" d="M30.22,5L1.241,34.218c-0.987,0.987-0.987,2.588,0,3.576l20.466,20.466
		c0.987,0.987,2.588,0.987,3.576,0L53.5,29.28L53.5,5H30.22z M43.5,19c-2.209,0-4-1.791-4-4c0-2.209,1.791-4,4-4s4,1.791,4,4
		C47.5,17.209,45.709,19,43.5,19z"/>
	<path style="fill:#28685C;" d="M43.5,7c-4.418,0-8,3.582-8,8s3.582,8,8,8s8-3.582,8-8S47.918,7,43.5,7z M43.5,19
		c-2.209,0-4-1.791-4-4c0-2.209,1.791-4,4-4s4,1.791,4,4C47.5,17.209,45.709,19,43.5,19z"/>
	<path style="fill:#FDD7AD;" d="M43.5,16c-0.256,0-0.512-0.098-0.707-0.293c-0.391-0.391-0.391-1.023,0-1.414l14-14
		c0.391-0.391,1.023-0.391,1.414,0s0.391,1.023,0,1.414l-14,14C44.012,15.902,43.756,16,43.5,16z"/>
	<path style="fill:#FFFFFF;" d="M22.55,44.399c-1.971,0-3.862-0.777-5.268-2.183c-2.905-2.905-2.905-7.633,0-10.538
		c0.391-0.391,1.023-0.391,1.414,0s0.391,1.023,0,1.414c-2.125,2.126-2.125,5.584,0,7.71c1.137,1.137,2.71,1.713,4.312,1.578
		c0.806-0.067,1.539-0.461,2.063-1.107c0.553-0.683,0.808-1.574,0.699-2.447l-1.326-10.605c-0.176-1.411,0.235-2.853,1.13-3.956
		c0.871-1.073,2.096-1.727,3.45-1.839c2.193-0.181,4.338,0.603,5.892,2.156c2.905,2.905,2.905,7.633,0,10.538
		c-0.391,0.391-1.023,0.391-1.414,0s-0.391-1.023,0-1.414c2.125-2.126,2.125-5.584,0-7.71c-1.137-1.136-2.703-1.714-4.312-1.578
		c-0.806,0.067-1.539,0.461-2.063,1.107c-0.553,0.682-0.808,1.574-0.699,2.447l1.326,10.605c0.176,1.41-0.236,2.853-1.13,3.955
		c-0.871,1.074-2.096,1.728-3.45,1.84C22.966,44.391,22.758,44.399,22.55,44.399z"/>
	<path style="fill:#FFFFFF;" d="M16.533,43.968c-0.256,0-0.512-0.098-0.707-0.293c-0.391-0.391-0.391-1.023,0-1.414l18.818-18.818
		c0.391-0.391,1.023-0.391,1.414,0s0.391,1.023,0,1.414L17.24,43.675C17.044,43.87,16.789,43.968,16.533,43.968z"/>
</g>

<!-- price-tag-1 -->
<g class="sprite" id="price-tag-1">
	<g>
		<path style="fill:#E8D5B2;" d="M30.22,5L1.241,34.218c-0.987,0.987-0.987,2.588,0,3.576l20.466,20.466
			c0.987,0.987,2.588,0.987,3.576,0L53.5,29.28L53.5,5H30.22z M43.5,19c-2.209,0-4-1.791-4-4c0-2.209,1.791-4,4-4s4,1.791,4,4
			C47.5,17.209,45.709,19,43.5,19z"/>
		<path style="fill:#CBB292;" d="M43.5,7c-4.418,0-8,3.582-8,8s3.582,8,8,8s8-3.582,8-8S47.918,7,43.5,7z M43.5,19
			c-2.209,0-4-1.791-4-4c0-2.209,1.791-4,4-4s4,1.791,4,4C47.5,17.209,45.709,19,43.5,19z"/>
	</g>
	<path style="fill:#D75A4A;" d="M43.5,16c-0.256,0-0.512-0.098-0.707-0.293c-0.391-0.391-0.391-1.023,0-1.414l14-14
		c0.391-0.391,1.023-0.391,1.414,0s0.391,1.023,0,1.414l-14,14C44.012,15.902,43.756,16,43.5,16z"/>
	<path style="fill:#CBB292;" d="M23.149,51.792c-0.256,0-0.512-0.098-0.707-0.293c-0.391-0.391-0.391-1.023,0-1.414L33.05,39.479
		c0.391-0.391,1.023-0.391,1.414,0s0.391,1.023,0,1.414L23.856,51.499C23.661,51.694,23.405,51.792,23.149,51.792z"/>
	<path style="fill:#CBB292;" d="M37.29,37.649c-0.26,0-0.521-0.109-0.71-0.29c-0.181-0.189-0.29-0.449-0.29-0.71
		c0-0.26,0.109-0.52,0.29-0.71c0.37-0.37,1.06-0.37,1.42,0c0.18,0.181,0.29,0.44,0.29,0.71c0,0.271-0.11,0.521-0.29,0.71
		C37.819,37.54,37.56,37.649,37.29,37.649z"/>
	<path style="fill:#CBB292;" d="M16.786,38.357c-0.256,0-0.512-0.098-0.707-0.293c-0.391-0.391-0.391-1.023,0-1.414l10.606-10.607
		c0.391-0.391,1.023-0.391,1.414,0s0.391,1.023,0,1.414L17.493,38.064C17.298,38.26,17.042,38.357,16.786,38.357z"/>
	<path style="fill:#CBB292;" d="M25.271,39.771c-0.256,0-0.512-0.098-0.707-0.293c-0.391-0.391-0.391-1.023,0-1.414l7.071-7.071
		c0.391-0.391,1.023-0.391,1.414,0s0.391,1.023,0,1.414l-7.071,7.071C25.783,39.674,25.527,39.771,25.271,39.771z"/>
	<path style="fill:#CBB292;" d="M18.2,46.843c-0.256,0-0.512-0.098-0.707-0.293c-0.391-0.39-0.391-1.023,0-1.414l1.414-1.415
		c0.391-0.391,1.023-0.391,1.414,0c0.391,0.39,0.391,1.023,0,1.414l-1.414,1.415C18.712,46.745,18.456,46.843,18.2,46.843z"/>
	<path style="fill:#CBB292;" d="M8.301,36.942c-0.256,0-0.512-0.098-0.707-0.293c-0.391-0.391-0.391-1.023,0-1.414L18.2,24.629
		c0.391-0.391,1.023-0.391,1.414,0s0.391,1.023,0,1.414L9.008,36.649C8.812,36.845,8.557,36.942,8.301,36.942z"/>
	<path style="fill:#CBB292;" d="M22.439,22.8c-0.26,0-0.52-0.11-0.71-0.29c-0.18-0.19-0.29-0.45-0.29-0.71
		c0-0.27,0.11-0.52,0.301-0.71c0.359-0.37,1.04-0.37,1.409,0c0.181,0.18,0.29,0.44,0.29,0.71c0,0.26-0.109,0.52-0.29,0.71
		C22.96,22.689,22.71,22.8,22.439,22.8z"/>
	<path style="fill:#CBB292;" d="M13.96,41.189c-0.271,0-0.521-0.109-0.71-0.3c-0.19-0.18-0.29-0.439-0.29-0.7
		c0-0.27,0.1-0.529,0.29-0.71c0.37-0.37,1.04-0.37,1.41,0c0.189,0.19,0.3,0.44,0.3,0.71c0,0.261-0.11,0.511-0.29,0.7
		C14.479,41.08,14.22,41.189,13.96,41.189z"/>
	<path style="fill:#CBB292;" d="M22.439,42.6c-0.26,0-0.52-0.109-0.71-0.29c-0.18-0.189-0.29-0.45-0.29-0.71s0.11-0.52,0.29-0.71
		c0.37-0.37,1.051-0.37,1.42,0c0.19,0.19,0.29,0.45,0.29,0.71s-0.1,0.521-0.29,0.71C22.96,42.49,22.71,42.6,22.439,42.6z"/>
</g>

<!-- time-is-money -->
<g class="sprite" id="time-is-money">
	<path id="XMLID_117_" style="fill:#F5EFCA;" d="M58,29c0,16.016-12.984,29-29,29C12.984,58,0,45.016,0,29S12.984,0,29,0
		C45.016,0,58,12.984,58,29"/>
	<path id="XMLID_116_" style="fill:#56B46F;" d="M48,56.223c-2.757,0-5-2.243-5-5c0-0.553,0.448-1,1-1c0.552,0,1,0.447,1,1
		c0,1.654,1.346,3,3,3c0.884,0,1.72-0.388,2.292-1.064c0.256-0.303,0.374-0.696,0.331-1.106c-0.046-0.438-0.272-0.847-0.622-1.118
		l-5.23-4.068c-0.777-0.605-1.282-1.513-1.383-2.492c-0.1-0.956,0.182-1.881,0.794-2.603C45.134,40.646,46.526,40,48,40
		c2.757,0,5,2.244,5,5c0,0.553-0.448,1-1,1c-0.552,0-1-0.447-1-1c0-1.654-1.346-3-3-3c-0.884,0-1.72,0.388-2.292,1.064
		c-0.256,0.303-0.374,0.694-0.331,1.104c0.046,0.439,0.272,0.848,0.622,1.12l5.23,4.069c0.777,0.604,1.281,1.511,1.383,2.488
		c0.1,0.957-0.182,1.882-0.793,2.606C50.866,55.577,49.474,56.223,48,56.223"/>
	<path id="XMLID_115_" style="fill:#56B46F;" d="M48,58c-0.552,0-1-0.447-1-1V39c0-0.553,0.448-1,1-1c0.552,0,1,0.447,1,1v18
		C49,57.553,48.552,58,48,58"/>
	<path id="XMLID_112_" style="fill:#F0C41B;" d="M30,25.021V14.879c0-0.553-0.448-1-1-1c-0.552,0-1,0.447-1,1v10.142
		c-1.399,0.364-2.494,1.459-2.858,2.858H18c-0.552,0-1,0.447-1,1c0,0.553,0.448,1,1,1h7.142c0.447,1.72,2,3,3.858,3
		c2.206,0,4-1.794,4-4C33,27.02,31.72,25.468,30,25.021 M29,30.879c-1.103,0-2-0.897-2-2c0-1.103,0.897-2,2-2s2,0.897,2,2
		C31,29.982,30.103,30.879,29,30.879"/>
	<path id="XMLID_111_" style="fill:#806F5E;" d="M29,8.879c-0.552,0-1-0.447-1-1v-1c0-0.553,0.448-1,1-1c0.552,0,1,0.447,1,1v1
		C30,8.432,29.552,8.879,29,8.879"/>
	<path id="XMLID_110_" style="fill:#806F5E;" d="M29,51.879c-0.552,0-1-0.447-1-1v-1c0-0.553,0.448-1,1-1c0.552,0,1,0.447,1,1v1
		C30,51.432,29.552,51.879,29,51.879"/>
	<path id="XMLID_109_" style="fill:#806F5E;" d="M51,29.879h-1c-0.552,0-1-0.447-1-1c0-0.553,0.448-1,1-1h1c0.552,0,1,0.447,1,1
		C52,29.432,51.552,29.879,51,29.879"/>
	<path id="XMLID_108_" style="fill:#806F5E;" d="M8,29.879H7c-0.552,0-1-0.447-1-1c0-0.553,0.448-1,1-1h1c0.552,0,1,0.447,1,1
		C9,29.432,8.552,29.879,8,29.879"/>
	<path id="XMLID_107_" style="fill:#806F5E;" d="M43.849,15.029c-0.256,0-0.512-0.098-0.707-0.293c-0.391-0.391-0.391-1.023,0-1.414
		l0.707-0.707c0.391-0.391,1.023-0.391,1.414,0c0.391,0.391,0.391,1.023,0,1.414l-0.707,0.707
		C44.361,14.932,44.105,15.029,43.849,15.029"/>
	<path id="XMLID_106_" style="fill:#806F5E;" d="M13.444,45.435c-0.256,0-0.512-0.098-0.707-0.293c-0.391-0.391-0.391-1.023,0-1.414
		l0.707-0.707c0.391-0.391,1.023-0.391,1.414,0c0.391,0.391,0.391,1.023,0,1.414l-0.707,0.707
		C13.956,45.337,13.7,45.435,13.444,45.435"/>
	<path id="XMLID_105_" style="fill:#806F5E;" d="M14.151,15.029c-0.256,0-0.512-0.098-0.707-0.293l-0.707-0.707
		c-0.391-0.391-0.391-1.023,0-1.414c0.391-0.391,1.023-0.391,1.414,0l0.707,0.707c0.391,0.391,0.391,1.023,0,1.414
		C14.663,14.932,14.407,15.029,14.151,15.029"/>
</g>

<defs>
	<style><![CDATA[
		.sprite { display: none; }
		.sprite:target { display: inline; }
	]]></style>
</defs>

</svg>