<?xml version="1.0"?>

<svg version="1.1" xmlns="http://www.w3.org/2000/svg" xmlns:xlink="http://www.w3.org/1999/xlink" x="0px" y="0px"
	 viewBox="0 0 512.438 512.438" style="enable-background:new 0 0 512.438 512.438;" xml:space="preserve">

<!-- blackboard -->
<g class="sprite" id="blackboard">
	<g>
		<rect x="32" y="84.219" style="fill:#00C37A;" width="448" height="336"/>
	</g>
	<g>
		<path style="fill:#7E5C62;" d="M472.219,76.219h-432c-8.82,0-16,7.176-16,16v312c0,4.418,3.578,8,8,8s8-3.582,8-8v-312h432v312
			c0,4.418,3.578,8,8,8s8-3.582,8-8v-312C488.219,83.395,481.039,76.219,472.219,76.219z"/>
	</g>
	<g>
		<path style="fill:#E6BE8A;" d="M504.438,436.219H8c-4.418,0-8-3.582-8-8v-16c0-4.418,3.582-8,8-8h496.438c4.418,0,8,3.582,8,8v16
			C512.438,432.637,508.856,436.219,504.438,436.219z"/>
	</g>
	<g>
		<path style="fill:#FFFFFF;" d="M136.219,404.219v-16c0-4.418-3.582-8-8-8h-48c-4.418,0-8,3.582-8,8v16"/>
	</g>
	<g>
		<g>
			<path style="fill:#FFFFFF;" d="M120.219,276.219c-4.422,0-8-3.582-8-8s3.578-8,8-8c13.234,0,24-10.766,24-24s-10.766-24-24-24
				s-24,10.766-24,24c0,4.418-3.578,8-8,8s-8-3.582-8-8c0-22.055,17.945-40,40-40s40,17.945,40,40S142.273,276.219,120.219,276.219z
				"/>
		</g>
	</g>
	<g>
		<g>
			<path style="fill:#FFFFFF;" d="M152.219,308.219h-64c-4.422,0-8-3.582-8-8v-8c0-17.645,14.352-32,32-32h8c4.422,0,8,3.582,8,8
				s-3.578,8-8,8h-8c-8.82,0-16,7.176-16,16h56c4.422,0,8,3.582,8,8S156.641,308.219,152.219,308.219z"/>
		</g>
	</g>
	<g>
		<g>
			<path style="fill:#FFFFFF;" d="M264.219,276.219c-4.422,0-8-3.582-8-8s3.578-8,8-8c13.234,0,24-10.766,24-24s-10.766-24-24-24
				s-24,10.766-24,24c0,4.418-3.578,8-8,8s-8-3.582-8-8c0-22.055,17.945-40,40-40s40,17.945,40,40S286.273,276.219,264.219,276.219z
				"/>
		</g>
	</g>
	<g>
		<g>
			<path style="fill:#FFFFFF;" d="M296.219,308.219h-64c-4.422,0-8-3.582-8-8v-8c0-17.645,14.352-32,32-32h8c4.422,0,8,3.582,8,8
				s-3.578,8-8,8h-8c-8.82,0-16,7.176-16,16h56c4.422,0,8,3.582,8,8S300.641,308.219,296.219,308.219z"/>
		</g>
	</g>
	<g>
		<g>
			<path style="fill:#FFFFFF;" d="M208.219,260.219h-32c-4.422,0-8-3.582-8-8s3.578-8,8-8h32c4.422,0,8,3.582,8,8
				S212.641,260.219,208.219,260.219z"/>
		</g>
	</g>
	<g>
		<g>
			<path style="fill:#FFFFFF;" d="M352.219,276.219h-32c-4.422,0-8-3.582-8-8s3.578-8,8-8h32c4.422,0,8,3.582,8,8
				S356.641,276.219,352.219,276.219z"/>
		</g>
	</g>
	<g>
		<g>
			<path style="fill:#FFFFFF;" d="M352.219,252.219h-32c-4.422,0-8-3.582-8-8s3.578-8,8-8h32c4.422,0,8,3.582,8,8
				S356.641,252.219,352.219,252.219z"/>
		</g>
	</g>
	<g>
		<g>
			<path style="fill:#FFFFFF;" d="M192.219,276.219c-4.422,0-8-3.582-8-8v-32c0-4.418,3.578-8,8-8s8,3.582,8,8v32
				C200.219,272.637,196.641,276.219,192.219,276.219z"/>
		</g>
	</g>
	<g>
		<g>
			<path style="fill:#FFFFFF;" d="M440.219,276.219h-64c-2.461,0-4.789-1.137-6.305-3.078s-2.055-4.473-1.453-6.863l16-64
				c1.07-4.285,5.406-6.906,9.695-5.82c4.289,1.07,6.898,5.414,5.82,9.703l-13.508,54.059h53.75c4.422,0,8,3.582,8,8
				S444.64,276.219,440.219,276.219z"/>
		</g>
	</g>
	<g>
		<g>
			<path style="fill:#FFFFFF;" d="M424.219,308.219c-4.422,0-8-3.582-8-8v-72c0-4.418,3.578-8,8-8s8,3.582,8,8v72
				C432.219,304.637,428.64,308.219,424.219,308.219z"/>
		</g>
	</g>
	<g>
		<path style="fill:#C9A07C;" d="M0,420.219v8c0,4.418,3.582,8,8,8h496.438c4.418,0,8-3.582,8-8v-8H0z"/>
	</g>
</g>


<!-- blackboard-1 -->
<g class="sprite" id="blackboard-1">
	<g>
		<g>
			<path style="fill:#C9A07C;" d="M360,408H152c-4.422,0-8-3.582-8-8s3.578-8,8-8h208c4.422,0,8,3.582,8,8S364.422,408,360,408z"/>
		</g>
	</g>
	<g>
		<path style="fill:#E6BE8A;" d="M359.953,7.102C359.492,3.059,356.07,0,352,0h-32.203c-2.281,0-4.445,0.973-5.969,2.668
			c-1.516,1.699-2.234,3.965-1.984,6.23l4.516,40c0.461,4.043,3.883,7.102,7.953,7.102h32.203c2.281,0,4.445-0.973,5.969-2.668
			c1.516-1.699,2.234-3.965,1.984-6.23L359.953,7.102z"/>
	</g>
	<g>
		<path style="fill:#E6BE8A;" d="M393.375,303.101c-0.461-4.043-3.883-7.102-7.953-7.102h-32.203c-2.281,0-4.445,0.973-5.969,2.668
			c-1.516,1.699-2.234,3.965-1.984,6.23l22.578,200c0.461,4.043,3.883,7.102,7.953,7.102H408c2.281,0,4.445-0.973,5.969-2.668
			c1.516-1.699,2.234-3.965,1.984-6.23L393.375,303.101z"/>
	</g>
	<g>
		<path style="fill:#E6BE8A;" d="M198.07,2.668C196.547,0.973,194.383,0,192.102,0h-32.203c-4.07,0-7.492,3.059-7.953,7.102
			l-4.516,40c-0.25,2.266,0.469,4.531,1.984,6.23c1.523,1.695,3.688,2.668,5.969,2.668h32.203c4.07,0,7.492-3.059,7.953-7.102
			l4.516-40C200.305,6.633,199.586,4.367,198.07,2.668z"/>
	</g>
	<g>
		<path style="fill:#E6BE8A;" d="M164.648,298.668c-1.523-1.695-3.688-2.668-5.969-2.668h-32.203c-4.07,0-7.492,3.059-7.953,7.102
			l-22.578,200c-0.25,2.266,0.469,4.531,1.984,6.23c1.523,1.695,3.687,2.668,5.969,2.668h32.203c4.07,0,7.492-3.059,7.953-7.102
			l22.578-200C166.883,302.633,166.164,300.367,164.648,298.668z"/>
	</g>
	<g>
		<path style="fill:#00A077;" d="M440,40H72c-8.82,0-16,7.176-16,16v240c0,8.824,7.18,16,16,16h368c8.82,0,16-7.176,16-16V56
			C456,47.176,448.82,40,440,40z"/>
	</g>
	<g>
		<g>
			<path style="fill:#C9A07C;" d="M456,344H56c-4.422,0-8-3.582-8-8s3.578-8,8-8h400c4.422,0,8,3.582,8,8S460.422,344,456,344z"/>
		</g>
	</g>
	<g>
		<g>
			<path style="fill:#C9A07C;" d="M144,512H88c-4.422,0-8-3.582-8-8s3.578-8,8-8h56c4.422,0,8,3.582,8,8S148.422,512,144,512z"/>
		</g>
	</g>
	<g>
		<g>
			<path style="fill:#C9A07C;" d="M424,512h-56c-4.422,0-8-3.582-8-8s3.578-8,8-8h56c4.422,0,8,3.582,8,8S428.422,512,424,512z"/>
		</g>
	</g>
	<g>
		<g>
			<path style="fill:#FFFFFF;" d="M344,104H240c-3.5,0-6.594,2.273-7.633,5.613L199.07,216.144l-23.641-59.117
				c-1.219-3.035-4.156-5.027-7.43-5.027h-32c-4.422,0-8,3.582-8,8s3.578,8,8,8h26.586l29.984,74.973
				c1.219,3.043,4.172,5.027,7.43,5.027c0.102,0,0.203-0.004,0.313-0.008c3.383-0.129,6.312-2.375,7.32-5.605L245.883,120H344
				c4.422,0,8-3.582,8-8S348.422,104,344,104z"/>
		</g>
		<g>
			<path style="fill:#FFFFFF;" d="M332.703,145.531c-3.586-2.605-8.578-1.813-11.172,1.762L296,182.398l-25.531-35.105
				c-2.594-3.574-7.594-4.363-11.172-1.762c-3.578,2.598-4.367,7.602-1.766,11.176L286.108,196l-28.577,39.293
				c-2.602,3.574-1.813,8.578,1.766,11.176c1.422,1.035,3.063,1.531,4.695,1.531c2.477,0,4.914-1.141,6.477-3.293L296,209.601
				l25.531,35.105c1.563,2.152,4,3.293,6.477,3.293c1.633,0,3.273-0.496,4.695-1.531c3.578-2.598,4.367-7.602,1.766-11.176
				L305.892,196l28.577-39.293C337.07,153.133,336.281,148.129,332.703,145.531z"/>
		</g>
	</g>
</g>

<!-- books -->
<g class="sprite" id="books">
	<g>
		<path style="fill:#FFEBB7;" d="M479.781,476h-375c-40.317,0-73-32.683-73-73v-14c0-40.317,32.683-73,73-73h375V476z"/>
	</g>
	<g>
		<rect x="47.781" y="332" style="fill:#5C546A;" width="40" height="128"/>
	</g>
	<g>
		<path style="fill:#FFEBB7;" d="M441.781,292h-426V180h426c12.15,0,22,9.85,22,22v68C463.781,282.15,453.931,292,441.781,292z"/>
	</g>
	<g>
		<rect x="71.781" y="36" style="fill:#FFEBB7;" width="408" height="120"/>
	</g>
	<g>
		<path style="fill:#00C37A;" d="M480,492H112c-52.934,0-96-43.062-96-96s43.066-96,96-96h368c8.836,0,16,7.164,16,16
			s-7.164,16-16,16H112c-35.289,0-64,28.711-64,64s28.711,64,64,64h368c8.836,0,16,7.164,16,16S488.836,492,480,492z"/>
	</g>
	<g>
		<g>
			<path style="fill:#009BCA;" d="M432,300H8c-4.422,0-8-3.578-8-8s3.578-8,8-8h424c13.234,0,24-10.766,24-24v-48
				c0-13.234-10.766-24-24-24H8c-4.422,0-8-3.578-8-8s3.578-8,8-8h424c22.055,0,40,17.945,40,40v48C472,282.055,454.055,300,432,300
				z"/>
		</g>
	</g>
	<g>
		<path style="fill:#E6BE94;" d="M479.781,76h-368c-4.418,0-8-3.582-8-8l0,0c0-4.418,3.582-8,8-8h368V76z"/>
	</g>
	<g>
		<path style="fill:#E6BE94;" d="M479.781,108h-368c-4.418,0-8-3.582-8-8l0,0c0-4.418,3.582-8,8-8h368V108z"/>
	</g>
	<g>
		<path style="fill:#E6BE94;" d="M479.781,140h-368c-4.418,0-8-3.582-8-8l0,0c0-4.418,3.582-8,8-8h368V140z"/>
	</g>
	<g>
		<path style="fill:#E6BE94;" d="M15.781,204h416c4.418,0,8,3.582,8,8l0,0c0,4.418-3.582,8-8,8h-416
			C15.781,220,15.781,204,15.781,204z"/>
	</g>
	<g>
		<path style="fill:#E6BE94;" d="M15.781,236h416c4.418,0,8,3.582,8,8l0,0c0,4.418-3.582,8-8,8h-416
			C15.781,252,15.781,236,15.781,236z"/>
	</g>
	<g>
		<path style="fill:#E6BE94;" d="M15.781,268h416c4.418,0,8,3.582,8,8l0,0c0,4.418-3.582,8-8,8h-416
			C15.781,284,15.781,268,15.781,268z"/>
	</g>
	<g>
		<path style="fill:#FF4F19;" d="M488,172H104c-26.469,0-48-21.531-48-48V60c0-26.469,21.531-48,48-48h384c8.836,0,16,7.164,16,16
			s-7.164,16-16,16H104c-8.824,0-16,7.176-16,16v64c0,8.82,7.176,16,16,16h384c8.836,0,16,7.164,16,16S496.836,172,488,172z"/>
	</g>
	<g>
		<path style="fill:#E6BE94;" d="M111.781,444c-4.422,0-8,3.578-8,8s3.578,8,8,8h368v-16H111.781z"/>
	</g>
	<g>
		<path style="fill:#E6BE94;" d="M111.781,412c-4.422,0-8,3.578-8,8s3.578,8,8,8h368v-16H111.781z"/>
	</g>
	<g>
		<path style="fill:#E6BE94;" d="M111.781,380c-4.422,0-8,3.578-8,8s3.578,8,8,8h368v-16H111.781z"/>
	</g>
	<g>
		<path style="fill:#E6BE94;" d="M111.781,348c-4.422,0-8,3.578-8,8s3.578,8,8,8h368v-16H111.781z"/>
	</g>
</g>

<!-- compass-edu -->
<g class="sprite" id="compass-edu">
	<g>
		<g>
			<path style="fill:#868491;" d="M367.895,320h-224c-4.422,0-8-3.582-8-8s3.578-8,8-8h224c4.422,0,8,3.582,8,8
				S372.317,320,367.895,320z"/>
		</g>
	</g>
	<g>
		<g>
			<path style="fill:#868491;" d="M391.89,512.004c0.797,0,1.602-0.121,2.398-0.375c4.219-1.324,6.563-5.816,5.234-10.031
				l-19.195-60.973c-1.336-4.215-5.836-6.555-10.031-5.227c-4.219,1.324-6.563,5.816-5.234,10.031l19.195,60.973
				C385.336,509.816,388.492,512.004,391.89,512.004z"/>
		</g>
	</g>
	<g>
		<path style="fill:#B4B6BC;" d="M259.264,136.001l101.579,321.608c2.148,6.828,8.457,11.199,15.258,11.199
			c1.59,0,3.211-0.238,4.809-0.742c8.43-2.652,13.109-11.637,10.457-20.066L286.058,114.589L259.264,136.001z"/>
	</g>
	<g>
		<g>
			<path style="fill:#868491;" d="M120.114,512.004c-0.797,0-1.602-0.121-2.398-0.375c-4.219-1.324-6.563-5.816-5.234-10.031
				l19.195-60.973c1.336-4.215,5.836-6.555,10.031-5.227c4.219,1.324,6.563,5.816,5.234,10.031l-19.195,60.973
				C126.668,509.816,123.512,512.004,120.114,512.004z"/>
		</g>
	</g>
	<g>
		<path style="fill:#B4B6BC;" d="M252.74,136.001L151.161,457.609c-2.148,6.828-8.457,11.199-15.258,11.199
			c-1.59,0-3.211-0.238-4.809-0.742c-8.43-2.652-13.109-11.637-10.457-20.066l105.308-333.411L252.74,136.001z"/>
	</g>
	<g>
		<g>
			<path style="fill:#3482AC;" d="M256.113,72c-8.836,0-16-7.164-16-16V16c0-8.836,7.164-16,16-16s16,7.164,16,16v40
				C272.113,64.836,264.949,72,256.113,72z"/>
		</g>
	</g>
	<g>
		<path style="fill:#009BCA;" d="M272.113,40h-32c-13.234,0-24,10.766-24,24v40c0,22.055,17.945,40,40,40s40-17.945,40-40V64
			C296.113,50.766,285.348,40,272.113,40z"/>
	</g>
	<g>
		<path style="fill:#009BCA;" d="M270.114,344h-28c-1.105,0-2-0.895-2-2v-60c0-1.105,0.895-2,2-2h28c1.105,0,2,0.895,2,2v60
			C272.114,343.104,271.218,344,270.114,344z"/>
	</g>
	<g>
		<circle style="fill:#5C546A;" cx="255.895" cy="104" r="16"/>
	</g>
</g>

<!-- earth-globe -->
<g class="sprite" id="earth-globe">
	<g>
		<rect x="255.891" y="392" style="fill:#868491;" width="32" height="48"/>
	</g>
	<g>
		<rect x="255.891" y="392" style="fill:#5C546A;" width="16" height="48"/>
	</g>
	<g>
		<path style="fill:#BA7958;" d="M224.11,472v-16c0-8.837,7.163-16,16-16h64c8.837,0,16,7.163,16,16v16"/>
	</g>
	<g>
		<path style="fill:#996459;" d="M271.891,440H240.11c-8.836,0-16,7.163-16,16v16h47.781V440z"/>
	</g>
	<g>
		<g>
			<path style="fill:#5C546A;" d="M272.109,48c-4.422,0-8-3.582-8-8V8c0-4.418,3.578-8,8-8s8,3.582,8,8v32
				C280.109,44.418,276.531,48,272.109,48z"/>
		</g>
	</g>
	<g>
		<g>
			<path style="fill:#5C546A;" d="M272.109,400c-4.422,0-8-3.582-8-8v-32c0-4.418,3.578-8,8-8s8,3.582,8,8v32
				C280.109,396.418,276.531,400,272.109,400z"/>
		</g>
	</g>
	<g>
		<path style="fill:#996459;" d="M328.109,464h-112c-22.055,0-40,17.945-40,40c0,4.418,3.578,8,8,8h176c4.422,0,8-3.582,8-8
			C368.109,481.945,350.164,464,328.109,464z"/>
	</g>
	<g>
		<circle style="fill:#FFD788;" cx="271.891" cy="200" r="168"/>
	</g>
	<g>
		<path style="fill:#E6BE8A;" d="M271.891,368c46.392,0,88.392-18.804,118.794-49.206L153.097,81.206
			c-30.402,30.402-49.206,72.402-49.206,118.794C103.891,292.784,179.107,368,271.891,368z"/>
	</g>
	<g>
		<g>
			<path style="fill:#E6BE8A;" d="M438.642,179.823c-9.04-75.474-68.083-135.546-143.073-146.13l-9.383,15.284
				c-0.361,0.664-0.968,1.143-1.695,1.348c-0.738,0.197-1.498,0.107-2.155-0.271l-24.549-14.139
				c-1.006-0.577-2.259-0.479-3.155,0.246l-35.066,28.282c-5.966,4.81-9.384,11.957-9.384,19.614v7.675
				c0,0.837,0.372,1.63,1.023,2.163c0.645,0.53,1.498,0.741,2.319,0.585l24.888-4.884l-3.834,6.686
				c-0.941,1.652-2.188,3.068-3.708,4.214l-22.263,16.803c-0.705,0.528-1.116,1.356-1.116,2.234v13.234l-7.459,0.793
				c-7.41,0.785-12.901,7.23-12.502,14.67l0.405,7.484c0.323,6.007,4.43,11.126,10.227,12.739l7.607,2.116
				c-8.329,2.535-14.016,10.248-13.82,19.171l0.126,5.772l-8.57,16.529c-7.071,13.628-6.152,30.01,2.406,42.752l4.074,6.068
				c5.573,8.296,15.559,12.532,25.348,10.762l37.22-6.645l8.663,10.73c5.868,7.262,13.573,12.873,22.291,16.226l3.784,1.455v23.373
				c0,2.543,0.919,7.112,2.811,13.97c2.39,8.657,8.034,15.848,15.892,20.254c5.108,2.866,10.741,4.323,16.434,4.323
				c3.123,0,6.267-0.438,9.357-1.326c0.837-0.238,1.515-0.853,1.832-1.66l24.516-61.972l32.813-30.915
				c0.438-0.41,0.727-0.949,0.837-1.537l3.27-18.025c0.153-0.85-0.093-1.723-0.667-2.368c-0.58-0.645-1.422-0.965-2.28-0.927
				l-7.952,0.544c-5.173,0.358-10.079-1.321-13.885-4.49L322.291,172l53.6,52l22.935-12.513c4.966-3.68,7.93-9.568,7.93-15.75
				v-15.214c0-0.9-0.432-1.745-1.159-2.27c-0.733-0.533-1.663-0.675-2.521-0.388l-6.229,2.062c-2.275,0.752-4.681,0.52-6.77-0.662
				c-2.089-1.184-3.533-3.123-4.063-5.466l-2.516-11.184l53.949,17.145C437.84,179.88,438.246,179.872,438.642,179.823z
				 M319.573,166.758l-4.326,3.907l-25.866,8.648c-3.269,1.093-6.86,0.62-9.734-1.283l-14.379-9.519
				c-5.091-3.369-10.965-5.121-16.964-5.121c-1.794,0-3.598,0.159-5.392,0.476l-26.091,4.605l7.736-5.777
				c1.657-1.237,2.939-2.91,3.704-4.831l4.873-12.24c4.391-4.066,10.817-4.892,16.056-2.125l15.241,13.513
				c0.87,0.774,2.133,0.924,3.161,0.383c1.034-0.541,1.619-1.665,1.477-2.819l-1.58-12.466c0.077-1.646,1.345-2.294,1.728-2.453
				c0.383-0.161,1.739-0.596,2.959,0.522l18.359,16.803c0.726,0.665,1.748,0.9,2.693,0.62l27.331-8.11
				c1.952,2.22,3.057,5.094,3.073,8.086C323.641,161.071,322.165,164.418,319.573,166.758z M330.756,130.645l-8.717,6.445
				c-0.962,0.711-2.133,1.096-3.33,1.096h-15.553c-3.095,0-5.6-2.507-5.6-5.6s2.505-5.6,5.6-5.6h13.71l7.23-5.348
				c2.488-1.84,6.005-1.31,7.831,1.173C333.769,125.3,333.244,128.805,330.756,130.645z M355.808,130.667
				c-0.995,0.725-2.149,1.075-3.292,1.075c-1.728,0-3.434-0.798-4.528-2.3l-14.334-19.66c-1.827-2.499-1.274-6.005,1.225-7.826
				c2.499-1.824,5.999-1.269,7.82,1.225l14.334,19.66C358.86,125.341,358.308,128.846,355.808,130.667z"/>
		</g>
	</g>
	<g>
		<g>
			<g>
				<path style="fill:#E6BE8A;" d="M194.492,120c-0.405,0-0.809-0.041-1.22-0.134c-3.019-0.67-4.922-3.661-4.255-6.68l3.095-13.929
					l-5.551-3.407c-2.636-1.616-3.462-5.067-1.843-7.703c1.624-2.639,5.07-3.467,7.705-1.84l8.952,5.496
					c2.034,1.25,3.052,3.653,2.537,5.986l-3.959,17.825C199.375,118.225,197.057,120,194.492,120z"/>
			</g>
		</g>
	</g>
	<g>
		<path style="fill:#C9A07C;" d="M236.829,164.938l-20.009,3.531l7.736-5.777c1.657-1.237,2.939-2.91,3.704-4.831l0.425-1.066
			L204.93,133.04l-4.899,0.521c-7.41,0.785-12.901,7.229-12.501,14.67l0.405,7.484c0.322,6.007,4.43,11.126,10.227,12.74
			l7.607,2.116c-8.329,2.535-14.017,10.249-13.82,19.171l0.126,5.772l-8.569,16.529c-7.071,13.628-6.152,30.01,2.406,42.752
			l4.074,6.068c5.572,8.296,15.559,12.531,25.348,10.762l37.22-6.645l8.663,10.73c5.868,7.262,13.573,12.873,22.291,16.226
			l3.784,1.455v23.374c0,2.543,0.919,7.112,2.811,13.97c2.39,8.657,8.034,15.849,15.892,20.254
			c5.108,2.865,10.741,4.323,16.434,4.323c3.123,0,6.267-0.438,9.357-1.326c0.837-0.238,1.515-0.853,1.832-1.66l24.517-61.972
			l2.116-1.994L236.829,164.938z"/>
	</g>
	<g>
		<g>
			<path style="fill:#996459;" d="M304.109,400h-32c-110.281,0-200-89.719-200-200s89.719-200,200-200h32c4.422,0,8,3.582,8,8
				s-3.578,8-8,8h-32c-101.461,0-184,82.543-184,184s82.539,184,184,184h32c4.422,0,8,3.582,8,8S308.531,400,304.109,400z"/>
		</g>
	</g>
	<g>
		<path style="fill:#7E5C62;" d="M271.891,464H216.11c-22.055,0-40,17.945-40,40c0,4.418,3.578,8,8,8h87.781V464z"/>
	</g>
</g>

<!-- light-bulb -->
<g class="sprite" id="light-bulb">
	<g>
		<path style="fill:#868491;" d="M280.01,464.008h-48c-4.422,0-8,3.578-8,8v8c0,17.648,14.352,32,32,32s32-14.352,32-32v-8
			C288.01,467.586,284.432,464.008,280.01,464.008z"/>
	</g>
	<g>
		<path style="fill:#5C546A;" d="M256.002,464.008H232.01c-4.422,0-8,3.578-8,8v8c0,17.646,14.347,31.995,31.992,31.999
			L256.002,464.008L256.002,464.008z"/>
	</g>
	<g>
		<path style="fill:#FFCD00;" d="M381.983,49.895c-37.391-35.141-86.367-52.742-137.734-49.52
			C150.639,6.2,75.014,84.286,72.092,178.149c-2.156,69.547,34.375,133.578,95.344,167.117c15.156,8.344,24.57,24.367,24.57,41.828
			v60.914c0,17.648,14.352,32,32,32h64c17.648,0,32-14.352,32-32v-60.914c0-17.445,9.484-33.508,24.766-41.93
			c58.742-32.406,95.234-94.156,95.234-161.156C440.006,133.43,418.858,84.547,381.983,49.895z"/>
	</g>
	<g>
		<circle style="fill:#FFE671;" cx="256.002" cy="184.008" r="128"/>
	</g>
	<g>
		<g>
			<path style="fill:#FFFFFF;" d="M283.986,232.008c-10.633,0-16.07-6.203-20.031-10.727c-3.492-3.984-4.883-5.273-8-5.273
				c-3.102,0-4.484,1.289-7.961,5.266c-3.734,4.273-9.383,10.734-20.016,10.734c-10.625,0-16.273-6.461-20.008-10.734
				c-3.477-3.977-4.859-5.266-7.961-5.266c-4.422,0-8-3.578-8-8s3.578-8,8-8c10.625,0,16.273,6.461,20.008,10.734
				c3.477,3.977,4.859,5.266,7.961,5.266s4.492-1.289,7.969-5.266c3.734-4.273,9.383-10.734,20.008-10.734
				c10.633,0,16.07,6.203,20.031,10.727c3.492,3.984,4.883,5.273,8,5.273c3.109,0,4.5-1.289,7.992-5.266
				c3.742-4.273,9.391-10.734,20.031-10.734c4.422,0,8,3.578,8,8s-3.578,8-8,8c-3.117,0-4.508,1.289-8,5.273
				C300.267,225.555,294.619,232.008,283.986,232.008z"/>
		</g>
	</g>
	<g>
		<g>
			<path style="fill:#5C546A;" d="M232.002,384.008c-3.68,0-6.992-2.555-7.813-6.297l-40-184c-0.938-4.32,1.805-8.578,6.117-9.523
				c4.344-0.953,8.578,1.805,9.523,6.117l40,184c0.938,4.32-1.805,8.578-6.117,9.523
				C233.135,383.954,232.564,384.008,232.002,384.008z"/>
		</g>
	</g>
	<g>
		<g>
			<path style="fill:#5C546A;" d="M280.017,384.008c-0.563,0-1.133-0.055-1.711-0.18c-4.313-0.945-7.055-5.203-6.117-9.523l40-184
				c0.945-4.313,5.164-7.063,9.523-6.117c4.313,0.945,7.055,5.203,6.117,9.523l-40,184
				C287.01,381.454,283.697,384.008,280.017,384.008z"/>
		</g>
	</g>
	<g>
		<path style="fill:#B4B6BC;" d="M190.633,376.008c0.851,3.593,1.374,7.293,1.374,11.086v60.914c0,17.648,14.352,32,32,32h64
			c17.648,0,32-14.352,32-32v-60.914c0-3.79,0.527-7.491,1.384-11.086H190.633z"/>
	</g>
	<g>
		<path style="fill:#868491;" d="M256.002,376.008h-65.369c0.851,3.593,1.374,7.293,1.374,11.086v60.914c0,17.648,14.352,32,32,32
			h31.995V376.008z"/>
	</g>
	<g>
		<g>
			<rect x="256.002" y="400.008" style="fill:#868491;" width="64" height="16"/>
		</g>
	</g>
	<g>
		<g>
			<rect x="256.006" y="432.008" style="fill:#868491;" width="64" height="16"/>
		</g>
	</g>
	<g>
		<g>
			<rect x="192.002" y="400.008" style="fill:#5C546A;" width="64" height="16"/>
		</g>
	</g>
	<g>
		<g>
			<rect x="192.002" y="432.008" style="fill:#5C546A;" width="64" height="16"/>
		</g>
	</g>
</g>

<!-- microscope -->
<g class="sprite" id="microscope">
	<g>
		<path style="fill:#5C546A;" d="M336.803,236.647l-16.969-16.969c-3.125-3.125-8.188-3.125-11.312,0l-32,32
			c-3.125,3.125-3.125,8.188,0,11.313l16.969,16.969c3.117,3.117,7.219,4.68,11.313,4.68c4.102,0,8.203-1.563,11.32-4.68
			l20.672-20.68c3.023-3.016,4.695-7.031,4.695-11.305C341.49,243.693,339.826,239.67,336.803,236.647z"/>
	</g>
	<g>
		<g>
			<path style="fill:#868491;" d="M304.6,181.053c-2.742-0.656-5.594,0.141-7.563,2.117l-56.633,56.633
				c-1.969,1.961-2.773,4.805-2.125,7.508c0.641,2.703,2.641,4.883,5.281,5.75l38.617,15.586l43.312-43.312l-15.164-38.906
				C309.483,183.756,307.311,181.725,304.6,181.053z"/>
		</g>
		<g>
			<path style="fill:#5C546A;" d="M243.561,253.061l38.617,15.586l21.5-21.5l-35.309-35.309l-27.965,27.965
				c-1.969,1.961-2.773,4.805-2.125,7.508C238.92,250.014,240.92,252.193,243.561,253.061z"/>
		</g>
	</g>
	<g>
		<path style="fill:#5C546A;" d="M157.079,77.962l-22.586,22.586c-0.391,0.391-1.024,0.391-1.414,0L77.807,45.276
			c-0.391-0.391-0.391-1.024,0-1.414l22.586-22.586c0.391-0.391,1.024-0.391,1.414,0l55.272,55.272
			C157.469,76.938,157.469,77.571,157.079,77.962z"/>
	</g>
	<g>
		<g>
			<path style="fill:#5C546A;" d="M344.162,412.568h-34.75c-4.422,0-8-3.578-8-8s3.578-8,8-8h34.75
				c4.211,0,8.336-1.711,11.313-4.688l18.625-18.625c3.125-3.125,8.188-3.125,11.313,0s3.125,8.188,0,11.313l-18.625,18.625
				C360.834,409.154,352.584,412.568,344.162,412.568z"/>
		</g>
	</g>
	<g>
		<path style="fill:#868491;" d="M184.634,212.566c-2.133,8.7-3.221,17.722-3.221,26.948c0,49.864,32.754,92.221,77.877,106.686
			l-13.839,45.972c-64.865-20.423-112.038-81.134-112.038-152.658c0-14.586,2.012-29.039,5.89-42.944L184.634,212.566z"/>
	</g>
	<g>
		<path style="fill:#5C546A;" d="M433.693,246.912l-22.625-22.625c-3.125-3.125-8.188-3.125-11.312,0L288.443,335.6
			c-2.453,2.453-3.047,6.211-1.469,9.297l15.313,29.938c1.164,2.281,3.352,3.867,5.883,4.266c0.414,0.063,0.828,0.094,1.242,0.094
			c2.102,0,4.148-0.828,5.656-2.344l118.625-118.625C436.818,255.1,436.818,250.037,433.693,246.912z"/>
	</g>
	<g>
		<path style="fill:#868491;" d="M449.693,326.912l-22.625-22.625c-3.125-3.125-8.188-3.125-11.313,0l-54.625,54.625
			c-3.125,3.125-3.125,8.188,0,11.313l22.625,22.625c1.563,1.563,3.609,2.344,5.656,2.344s4.094-0.781,5.656-2.344l54.625-54.625
			C452.818,335.1,452.818,330.037,449.693,326.912z"/>
	</g>
	<g>
		<path style="fill:#B4B6BC;" d="M277.412,332.568c-22.055,0-40,17.945-40,40v88c0,4.422,3.578,8,8,8c4.422,0,8-3.578,8-8h48
			c0,4.422,3.578,8,8,8c4.422,0,8-3.578,8-8v-88C317.412,350.514,299.467,332.568,277.412,332.568z"/>
	</g>
	<g>
		<path style="fill:#B4B6BC;" d="M308.342,183.162L190.951,66.221c-9.352-9.336-24.57-9.355-33.938,0.004l-33.945,33.941
			c-4.531,4.535-7.031,10.563-7.031,16.973c0,6.41,2.5,12.437,7.031,16.969l12.688,12.684c3.125,3.125,8.187,3.125,11.311,0.001
			l52.128,52.126c-0.007,0.007-0.018,0.01-0.025,0.017c-3.109,3.133-3.094,8.203,0.047,11.313l41.211,40.891
			c1.555,1.547,3.594,2.32,5.633,2.32c2.047,0,4.094-0.781,5.656-2.344l56.633-56.633c1.5-1.5,2.344-3.539,2.344-5.664
			S309.842,184.654,308.342,183.162z"/>
	</g>
	<g>
		<path style="fill:#868491;" d="M199.217,210.248l41.211,40.891c1.555,1.547,3.594,2.32,5.633,2.32
			c2.047,0,4.094-0.781,5.656-2.344l27.965-27.965L139.884,83.353l-16.815,16.813c-4.531,4.535-7.031,10.563-7.031,16.973
			c0,6.41,2.5,12.437,7.031,16.969l12.688,12.684c3.125,3.125,8.187,3.125,11.311,0.001l52.128,52.126
			c-0.007,0.007-0.018,0.01-0.025,0.017C196.061,202.068,196.076,207.139,199.217,210.248z"/>
	</g>
	<g>
		<path style="fill:#868491;" d="M333.412,452.568h-112c-17.648,0-32,14.352-32,32v16c0,4.422,3.578,8,8,8h160c4.422,0,8-3.578,8-8
			v-16C365.412,466.92,351.061,452.568,333.412,452.568z"/>
	</g>
	<g>
		<circle style="fill:#5C546A;" cx="173.413" cy="172.568" r="48"/>
	</g>
	<g>
		<circle style="fill:#868491;" cx="173.413" cy="172.568" r="24"/>
	</g>
	<g>
		<circle style="fill:#5C546A;" cx="277.1" cy="372.568" r="16"/>
	</g>
	<g>
		<path style="fill:#868491;" d="M115.443,24.971L81.502,58.912c-3.124,3.124-8.19,3.124-11.314,0L58.874,47.598
			c-3.124-3.124-3.124-8.19,0-11.314L92.816,2.343c3.124-3.124,8.19-3.124,11.314,0l11.314,11.314
			C118.567,16.781,118.567,21.846,115.443,24.971z"/>
	</g>
	<g>
		<path style="fill:#5C546A;" d="M75.845,19.314L58.874,36.284c-3.124,3.124-3.124,8.189,0,11.313l11.314,11.314
			c3.124,3.124,8.189,3.124,11.313,0l16.971-16.971L75.845,19.314z"/>
	</g>
</g>

<!-- molecules -->
<g class="sprite" id="molecules">
	<g>
		<g>
			<path style="fill:#5C546A;" d="M84.516,343.25c-3.023,0-5.922-1.719-7.273-4.648c-1.852-4.008-0.102-8.766,3.914-10.617
				l106.352-49.086c4.023-1.852,8.766-0.094,10.617,3.914s0.102,8.766-3.914,10.617L87.859,342.516
				C86.773,343.016,85.633,343.25,84.516,343.25z"/>
		</g>
	</g>
	<g>
		<g>
			<path style="fill:#5C546A;" d="M205.305,213.086c-2.047,0-4.094-0.781-5.656-2.344l-70.461-70.461
				c-3.125-3.125-3.125-8.188,0-11.313s8.188-3.125,11.312,0l70.461,70.461c3.125,3.125,3.125,8.187,0,11.312
				C209.398,212.305,207.351,213.086,205.305,213.086z"/>
		</g>
	</g>
	<g>
		<g>
			<path style="fill:#5C546A;" d="M307.133,213.086c-2.047,0-4.094-0.781-5.656-2.344c-3.125-3.125-3.125-8.188,0-11.312
				L402.969,97.945c3.125-3.125,8.188-3.125,11.313,0s3.125,8.187,0,11.312L312.789,210.742
				C311.226,212.305,309.18,213.086,307.133,213.086z"/>
		</g>
	</g>
	<g>
		<g>
			<path style="fill:#5C546A;" d="M449.594,457.375c-2.047,0-4.094-0.781-5.656-2.344L301.469,312.562
				c-3.125-3.125-3.125-8.187,0-11.312s8.188-3.125,11.312,0L455.25,443.719c3.125,3.125,3.125,8.188,0,11.313
				C453.687,456.594,451.64,457.375,449.594,457.375z"/>
		</g>
	</g>
	<g>
		<g>
			<path style="fill:#5C546A;" d="M269.305,408c-4.094,0-7.578-3.125-7.961-7.273l-6.578-72.305
				c-0.398-4.398,2.844-8.297,7.242-8.695c4.477-0.383,8.289,2.852,8.695,7.242l6.578,72.305c0.398,4.398-2.844,8.297-7.242,8.695
				C269.789,407.992,269.547,408,269.305,408z"/>
		</g>
	</g>
	<g>
		<circle style="fill:#FF4F19;" cx="256.219" cy="256" r="80"/>
	</g>
	<g>
		<circle style="fill:#FF8C62;" cx="276" cy="236" r="28"/>
	</g>
	<g>
		<circle style="fill:#FF9100;" cx="47.89" cy="351.89" r="47.89"/>
	</g>
	<g>
		<circle style="fill:#FFCD00;" cx="59.732" cy="339.918" r="16.762"/>
	</g>
	<g>
		<circle style="fill:#FFCD00;" cx="448.109" cy="63.89" r="63.89"/>
	</g>
	<g>
		<circle style="fill:#FFE671;" cx="463.907" cy="47.918" r="22.362"/>
	</g>
	<g>
		<circle style="fill:#00C37A;" cx="111.89" cy="112.11" r="39.89"/>
	</g>
	<g>
		<circle style="fill:#60DC4D;" cx="121.754" cy="102.137" r="13.962"/>
	</g>
	<g>
		<circle style="fill:#4CD7FF;" cx="471.89" cy="472.109" r="39.89"/>
	</g>
	<g>
		<circle style="fill:#AEEFFF;" cx="481.754" cy="462.137" r="13.962"/>
	</g>
	<g>
		<circle style="fill:#868491;" cx="272.109" cy="432.109" r="39.89"/>
	</g>
	<g>
		<circle style="fill:#B4B6BC;" cx="281.973" cy="422.137" r="13.962"/>
	</g>
</g>

<!-- notebook -->
<g class="sprite" id="notebook">
	<g>
		<path style="fill:#4BB9EC;" d="M448.109,0h-352c-13.234,0-24,10.766-24,24v464c0,13.234,10.766,24,24,24h352
			c13.234,0,24-10.766,24-24V24C472.109,10.766,461.344,0,448.109,0z"/>
	</g>
	<g>
		<path style="fill:#009BCA;" d="M120.109,0H87.891c-13.234,0-24,10.766-24,24v464c0,13.234,10.766,24,24,24h32.219V0H120.109z"/>
	</g>
	<g>
		<path style="fill:#3482AC;" d="M376.109,332h-0.572c-0.071-0.272-0.084-0.545-0.17-0.816l-45.279-143.383
			c5.679-0.948,10.021-5.85,10.021-11.801c0-6.629-5.375-12-12-12h-64c-6.625,0-12,5.371-12,12c0,5.951,4.343,10.853,10.021,11.801
			l-45.279,143.383c-0.086,0.271-0.1,0.544-0.17,0.816h-0.572c-6.625,0-12,5.371-12,12s5.375,12,12,12h32c6.625,0,12-5.371,12-12
			c0-5.951-4.342-10.853-10.021-11.801L258.994,304h74.231l8.905,28.199c-5.678,0.948-10.021,5.85-10.021,11.801
			c0,6.629,5.375,12,12,12h32c6.625,0,12-5.371,12-12S382.734,332,376.109,332z M269.099,272l26.269-83.184
			c0.086-0.271,0.1-0.544,0.17-0.816h1.144c0.071,0.272,0.084,0.545,0.17,0.816L323.12,272H269.099z"/>
	</g>
	<g>
		<g>
			<path style="fill:#5C546A;" d="M80.109,64H47.891c-4.422,0-8-3.582-8-8s3.578-8,8-8H80.11c4.422,0,8,3.582,8,8
				S84.531,64,80.109,64z"/>
		</g>
	</g>
	<g>
		<g>
			<path style="fill:#5C546A;" d="M80.109,104H47.891c-4.422,0-8-3.582-8-8s3.578-8,8-8H80.11c4.422,0,8,3.582,8,8
				C88.109,100.418,84.531,104,80.109,104z"/>
		</g>
	</g>
	<g>
		<g>
			<path style="fill:#5C546A;" d="M80.109,144H47.891c-4.422,0-8-3.582-8-8s3.578-8,8-8H80.11c4.422,0,8,3.582,8,8
				S84.531,144,80.109,144z"/>
		</g>
	</g>
	<g>
		<g>
			<path style="fill:#5C546A;" d="M80.109,184H47.891c-4.422,0-8-3.582-8-8s3.578-8,8-8H80.11c4.422,0,8,3.582,8,8
				S84.531,184,80.109,184z"/>
		</g>
	</g>
	<g>
		<g>
			<path style="fill:#5C546A;" d="M80.109,224H47.891c-4.422,0-8-3.582-8-8s3.578-8,8-8H80.11c4.422,0,8,3.582,8,8
				S84.531,224,80.109,224z"/>
		</g>
	</g>
	<g>
		<g>
			<path style="fill:#5C546A;" d="M80.109,264H47.891c-4.422,0-8-3.582-8-8s3.578-8,8-8H80.11c4.422,0,8,3.582,8,8
				S84.531,264,80.109,264z"/>
		</g>
	</g>
	<g>
		<g>
			<path style="fill:#5C546A;" d="M80.109,304H47.891c-4.422,0-8-3.582-8-8s3.578-8,8-8H80.11c4.422,0,8,3.582,8,8
				S84.531,304,80.109,304z"/>
		</g>
	</g>
	<g>
		<g>
			<path style="fill:#5C546A;" d="M80.109,344H47.891c-4.422,0-8-3.582-8-8s3.578-8,8-8H80.11c4.422,0,8,3.582,8,8
				S84.531,344,80.109,344z"/>
		</g>
	</g>
	<g>
		<g>
			<path style="fill:#5C546A;" d="M80.109,384H47.891c-4.422,0-8-3.582-8-8s3.578-8,8-8H80.11c4.422,0,8,3.582,8,8
				S84.531,384,80.109,384z"/>
		</g>
	</g>
	<g>
		<g>
			<path style="fill:#5C546A;" d="M80.109,424H47.891c-4.422,0-8-3.582-8-8s3.578-8,8-8H80.11c4.422,0,8,3.582,8,8
				S84.531,424,80.109,424z"/>
		</g>
	</g>
	<g>
		<g>
			<path style="fill:#5C546A;" d="M80.109,464H47.891c-4.422,0-8-3.582-8-8s3.578-8,8-8H80.11c4.422,0,8,3.582,8,8
				S84.531,464,80.109,464z"/>
		</g>
	</g>
	<g>
		<g>
			<path style="fill:#3482AC;" d="M120.109,496c-4.422,0-8-3.582-8-8V24c0-4.418,3.578-8,8-8s8,3.582,8,8v464
				C128.109,492.418,124.531,496,120.109,496z"/>
		</g>
	</g>
</g>

<!-- paint-brush -->
<g class="sprite" id="paint-brush">
	<g>
		<path style="fill:#FFD788;" d="M277.066,379.385c6.933-3.845,11.833-10.951,12.373-19.385l19.068-304.109
			C310.4,25.604,286.346,0,256,0s-54.4,25.604-52.507,55.891L222.561,360c0.54,8.435,5.44,15.541,12.373,19.385H277.066z"/>
	</g>
	<g>
		<path style="fill:#E6BE8A;" d="M255.781,0.012c-30.241,0.125-54.176,25.666-52.288,55.879L222.561,360
			c0.54,8.435,5.44,15.541,12.373,19.385h20.847V0.012z"/>
	</g>
	<g>
		<path style="fill:#868491;" d="M289.439,360l6.019-96h-78.916l6.019,96c0.54,8.435,5.44,15.541,12.373,19.385h42.132
			C283.999,375.54,288.899,368.434,289.439,360z"/>
	</g>
	<g>
		<path style="fill:#B4B6BC;" d="M255.781,379.385h21.285c6.933-3.845,11.833-10.951,12.373-19.385l6.019-96h-39.677V379.385z"/>
	</g>
	<g>
		<path style="fill:#996459;" d="M304,414.5c0,31.203-29.209,80.463-42.056,94.82c-3.188,3.563-8.714,3.575-11.916,0.025
			C237.165,495.081,208,446.069,208,414.5c0-26.51,21.49-48,48-48C282.51,366.5,304,387.99,304,414.5z"/>
	</g>
	<g>
		<path style="fill:#7E5C62;" d="M255.781,366.511C229.373,366.631,208,388.064,208,414.5c0,31.569,29.165,80.582,42.027,94.845
			c1.548,1.717,3.646,2.56,5.753,2.612L255.781,366.511L255.781,366.511z"/>
	</g>
	<g>
		<polygon style="fill:#868491;" points="293.452,296 294.455,280 217.545,280 218.548,296 		"/>
	</g>
	<g>
		<g>
			<polygon style="fill:#5C546A;" points="255.781,280 217.545,280 218.548,296 255.781,296 			"/>
		</g>
		<g>
			<polygon style="fill:#5C546A;" points="293.452,296 294.455,280 294.455,280 			"/>
		</g>
	</g>
</g>


<!-- palette -->
<g class="sprite" id="palette">
	<g>
		<path style="fill:#E6BE94;" d="M439.208,215.578c-46.975-53.529-96-65.973-96-125c0-64.333-54.333-113.667-149.429-79.321
			C91.816,48.083,21.208,136.911,21.208,247.578c0,136.966,111.033,248,248,248c22.527,0,44.354-3.004,65.099-8.632l-0.006-0.026
			C439.208,456.578,525.208,313.578,439.208,215.578z M333.709,189.69c-14.501,18.555-54.668,7.707-70.17-18.547
			c-13.664-23.14-8.664-56.232,14.988-70.822c13.71-8.457,31.791-0.135,35.231,15.602c2.8,12.806,8.543,28.671,20.239,43.187
			C341.125,167.96,340.707,180.736,333.709,189.69z"/>
	</g>
	<g>
		<circle style="fill:#FF4F19;" cx="165.098" cy="135.688" r="47.89"/>
	</g>
	<g>
		<circle style="fill:#FF8C62;" cx="176.94" cy="123.715" r="16.762"/>
	</g>
	<g>
		<circle style="fill:#FFCD00;" cx="117.098" cy="255.688" r="47.89"/>
	</g>
	<g>
		<circle style="fill:#FFE671;" cx="128.94" cy="243.715" r="16.762"/>
	</g>
	<g>
		<circle style="fill:#00C37A;" cx="172.879" cy="367.469" r="47.89"/>
	</g>
	<g>
		<circle style="fill:#60DC4D;" cx="184.72" cy="355.496" r="16.762"/>
	</g>
	<g>
		<circle style="fill:#4CD7FF;" cx="293.098" cy="407.688" r="47.89"/>
	</g>
	<g>
		<circle style="fill:#AEEFFF;" cx="304.939" cy="395.715" r="16.762"/>
	</g>
	<g>
		<circle style="fill:#009BCA;" cx="381.098" cy="319.469" r="47.89"/>
	</g>
	<g>
		<circle style="fill:#4CD7FF;" cx="392.939" cy="307.496" r="16.762"/>
	</g>
</g>

<!-- professor -->
<g class="sprite" id="professor">
	<g>
		<path style="fill:#996459;" d="M436.452,358.027l-75.047-14.023c-0.484-0.086-0.977-0.133-1.469-0.133h-208
			c-0.492,0-0.984,0.047-1.469,0.133l-75.726,14.187c-38.609,10.813-58.805,48.844-58.805,80.828v43.836
			c0,16,14.352,29.016,32,29.016h416c17.648,0,32-13.016,32-29.016v-43.836C495.936,407.035,475.741,369.004,436.452,358.027z"/>
	</g>
	<g>
		<path style="fill:#4BB9EC;" d="M294.712,511.871l-14.885-89.312c-0.641-3.859-3.977-6.688-7.891-6.688h-32
			c-3.914,0-7.25,2.828-7.891,6.688l-14.885,89.312L294.712,511.871L294.712,511.871z"/>
	</g>
	<g>
		<path style="fill:#009BCA;" d="M239.936,415.871c-2.044,0-3.903,0.799-5.331,2.086l53.346,53.351l-4.525-27.151l-28.283-28.286
			H239.936z"/>
	</g>
	<g>
		<path style="fill:#3482AC;" d="M287.882,376.019c-0.008-4.414-3.586-7.984-8-7.984h-40c-3.031,0-5.797,1.711-7.156,4.422l-8,16
			c-0.563,1.117-0.852,2.352-0.844,3.609l0.055,15.812c0,13.227,10.766,23.992,24,23.992h16c13.234,0,24-10.766,24-24.016
			L287.882,376.019z"/>
	</g>
	<g>
		<path style="fill:#B4B6BC;" d="M259.78,345.051l-71.945-40.164c-3.492-1.961-7.883-1.008-10.281,2.164l-30.195,40
			c-2.063,2.734-2.164,6.477-0.242,9.305l48.773,71.992c2.688,3.961,6.961,6.492,11.719,6.945c0.516,0.047,1.031,0.07,1.539,0.07
			c4.219,0,8.266-1.656,11.289-4.672c0.203-0.203,0.398-0.422,0.578-0.648l33.148-41.156c0.359-0.438,0.672-0.922,0.922-1.43
			l7.945-15.836c0.563-1.109,0.852-2.344,0.852-3.586v-16C263.882,349.137,262.311,346.465,259.78,345.051z"/>
	</g>
	<g>
		<path style="fill:#B4B6BC;" d="M251.983,345.051l71.945-40.164c3.492-1.961,7.883-1.008,10.281,2.164l30.195,40
			c2.063,2.734,2.164,6.477,0.242,9.305l-48.773,71.992c-2.688,3.961-6.961,6.492-11.719,6.945c-0.516,0.047-1.031,0.07-1.539,0.07
			c-4.219,0-8.266-1.656-11.289-4.672c-0.203-0.203-0.398-0.422-0.578-0.648l-33.147-41.156c-0.359-0.438-0.672-0.922-0.922-1.43
			l-7.945-15.836c-0.563-1.109-0.852-2.344-0.852-3.586v-16C247.882,349.137,249.452,346.465,251.983,345.051z"/>
	</g>
	<g>
		<path style="fill:#FFDCAD;" d="M367.882,152.035l-15.781-16c0,0-54.219-14.667-168.219,0l-48,16c0,11,0,17.55,0,56
			c0,79.529,53.726,144,120,144s120-64.471,120-144c0-12.906,0-37.5,0-56C373.811,154.349,367.882,152.035,367.882,152.035z"/>
	</g>
	<g>
		<circle style="fill:#AEEFFF;" cx="207.717" cy="208.035" r="32"/>
	</g>
	<g>
		<path style="fill:#FFFFFF;" d="M207.936,176.035c-8.78,0-16.726,3.547-22.507,9.273l45.234,45.234
			c5.727-5.782,9.273-13.727,9.273-22.507C239.936,190.362,225.61,176.035,207.936,176.035z"/>
	</g>
	<g>
		<circle style="fill:#AEEFFF;" cx="303.717" cy="208.035" r="32"/>
	</g>
	<g>
		<path style="fill:#FFFFFF;" d="M303.936,176.035c-8.78,0-16.726,3.547-22.507,9.273l45.234,45.234
			c5.727-5.782,9.273-13.727,9.273-22.507C335.936,190.362,321.61,176.035,303.936,176.035z"/>
	</g>
	<g>
		<g>
			<path style="fill:#5C546A;" d="M272.101,216.035c-4.422,0-8-3.578-8-8c0-4.414-3.586-8-8-8s-8,3.586-8,8c0,4.422-3.578,8-8,8
				s-8-3.578-8-8c0-13.234,10.766-24,24-24c13.234,0,24,10.766,24,24C280.101,212.457,276.522,216.035,272.101,216.035z"/>
		</g>
	</g>
	<g>
		<g>
			<path style="fill:#5C546A;" d="M176.101,208.035h-40.219c-4.422,0-8-3.578-8-8s3.578-8,8-8h40.219c4.422,0,8,3.578,8,8
				S180.522,208.035,176.101,208.035z"/>
		</g>
	</g>
	<g>
		<g>
			<path style="fill:#5C546A;" d="M375.882,208.035h-39.781c-4.422,0-8-3.578-8-8s3.578-8,8-8h39.781c4.422,0,8,3.578,8,8
				S380.304,208.035,375.882,208.035z"/>
		</g>
	</g>
	<g>
		<g>
			<path style="fill:#868491;" d="M208.101,248.035c-22.055,0-40-17.945-40-40s17.945-40,40-40s40,17.945,40,40
				S230.155,248.035,208.101,248.035z M208.101,184.035c-13.234,0-24,10.766-24,24s10.766,24,24,24s24-10.766,24-24
				C232.101,194.801,221.335,184.035,208.101,184.035z"/>
		</g>
	</g>
	<g>
		<g>
			<path style="fill:#868491;" d="M304.101,248.035c-22.055,0-40-17.945-40-40s17.945-40,40-40s40,17.945,40,40
				S326.155,248.035,304.101,248.035z M304.101,184.035c-13.234,0-24,10.766-24,24s10.766,24,24,24s24-10.766,24-24
				C328.1,194.801,317.335,184.035,304.101,184.035z"/>
		</g>
	</g>
	<g>
		<g>
			<path style="fill:#FFFFFF;" d="M221.827,282.629c-4.336,0-8.594-1.406-12.102-5.711c-2.781-3.43-2.266-8.469,1.164-11.258
				c3.438-2.781,8.469-2.266,11.258,1.164c0.828,0.125,5.125-1.367,7.914-2.32c8.367-2.852,19.828-6.766,30.516,0.852
				c3.602,2.563,4.438,7.555,1.875,11.156c-2.563,3.586-7.555,4.43-11.156,1.875c-3.727-2.664-8.562-1.297-16.078,1.266
				C231.233,281.012,226.491,282.629,221.827,282.629z"/>
		</g>
	</g>
	<g>
		<g>
			<path style="fill:#FFFFFF;" d="M290.046,282.629c-4.656,0-9.406-1.617-13.391-2.977c-7.523-2.555-12.359-3.93-16.078-1.266
				c-3.594,2.57-8.594,1.719-11.156-1.875c-2.563-3.602-1.727-8.594,1.875-11.156c10.672-7.602,22.148-3.703,30.516-0.852
				c2.789,0.953,6.992,2.461,8.328,2.102c2.781-3.422,7.609-3.836,11.047-1.055c3.43,2.781,3.742,7.93,0.961,11.359
				C298.647,281.223,294.382,282.629,290.046,282.629z"/>
		</g>
	</g>
	<g>
		<path style="fill:#FFFFFF;" d="M287.874,303.371c-0.266-4.219-3.758-7.5-7.984-7.5h-47.906c-4.227,0-7.719,3.281-7.984,7.5
			c-0.148,2.391-3.359,59,25.82,93.656c1.516,1.805,3.758,2.844,6.117,2.844s4.602-1.039,6.117-2.844
			C291.233,362.371,288.022,305.762,287.874,303.371z"/>
	</g>
	<g>
		<g>
			<path style="fill:#5C546A;" d="M415.936,207.871c-4.422,0-8-3.578-8-8v-95.383c0-4.422,3.578-8,8-8s8,3.578,8,8v95.383
				C423.936,204.293,420.358,207.871,415.936,207.871z"/>
		</g>
	</g>
	<g>
		<path style="fill:#5C546A;" d="M441.936,60.324L279.21,4.535c-17.617-6.047-37.047-6.047-54.68,0L61.804,60.324
			c-8.508,2.922-14,10.609-14,19.602s5.492,16.68,14,19.602l79.57,27.281c0.836,0.281,1.711,0.43,2.594,0.43c0.031,0,0.07,0,0.102,0
			l223.969-2.797c0.844-0.008,1.688-0.156,2.492-0.43l71.406-24.484c8.508-2.922,14-10.609,14-19.602S450.444,63.246,441.936,60.324
			z"/>
	</g>
	<g>
		<g>
			<path style="fill:#5D647F;" d="M228.498,141.195c8.483-0.616,17.577-0.996,27.439-0.996c9.862,0,18.956,0.379,27.439,0.996
				c32.577,1.882,71.284,7.267,92.561,18.84v-64c0-27.484-62.203-40-120-40s-120,12.516-120,40v64
				C157.214,148.461,195.92,143.077,228.498,141.195z"/>
		</g>
		<g>
			<path style="fill:#5C546A;" d="M255.936,100.363c-34.716,0-92.229,4.566-120,19.672v20.328c0-6.969,42.055-24,120-24
				s120,17.031,120,24v-20.328C348.166,104.93,290.653,100.363,255.936,100.363z"/>
		</g>
		<g>
			<path style="fill:#68748D;" d="M255.936,56.035c-0.018,0-0.037,0.001-0.055,0.001V140.2c0.019,0,0.036-0.001,0.055-0.001
				c9.862,0,18.956,0.379,27.439,0.996c32.577,1.882,71.284,7.267,92.561,18.84v-64C375.936,68.551,313.733,56.035,255.936,56.035z"
				/>
		</g>
		<g>
			<path style="fill:#5D647F;" d="M255.882,100.364v16c0.019,0,0.036-0.001,0.055-0.001c77.945,0,120,17.031,120,24v-20.328
				c-27.771-15.105-85.284-19.672-120-19.672C255.919,100.363,255.899,100.364,255.882,100.364z"/>
		</g>
	</g>
	<g>
		<path style="fill:#FFE671;" d="M423.882,256.035h-16c-4.418,0-8-3.582-8-8v-32c0-8.837,7.163-16,16-16l0,0c8.837,0,16,7.163,16,16
			v32C431.882,252.453,428.3,256.035,423.882,256.035z"/>
	</g>
	<g>
		<path style="fill:#FFCD00;" d="M399.882,216.035v32c0,4.418,3.582,8,8,8h8v-56C407.045,200.035,399.882,207.198,399.882,216.035z"
			/>
	</g>
	<g>
		<path style="fill:#B4B6BC;" d="M95.938,458.382c0-16.974-6.743-33.252-18.745-45.255L41.667,377.6
			c-16.948,16.802-25.73,40.394-25.73,61.419v43.836c0,16,14.352,29.016,32,29.016h48.002v-53.489H95.938z"/>
	</g>
	<g>
		<path style="fill:#B4B6BC;" d="M470.136,377.676l-35.451,35.452c-12.003,12.002-18.746,28.281-18.746,45.255v53.489h47.998
			c17.648,0,32-13.016,32-29.016V439.02C495.936,418.045,487.194,394.516,470.136,377.676z"/>
	</g>
	<g>
		<polygon style="fill:#009BCA;" points="229.159,439.882 225.926,459.275 278.517,511.871 294.712,511.871 293.427,504.156 		"/>
	</g>
	<g>
		<polygon style="fill:#009BCA;" points="218.784,502.132 228.522,511.871 251.147,511.871 222.016,482.739 		"/>
	</g>
</g>

<!-- school -->
<g class="sprite" id="school">
	<g>
		<polygon style="fill:#E6BE94;" points="487.781,484 23.781,484 23.781,268 119.782,268 255.781,132 391.784,268 487.781,268 		"/>
	</g>
	<g>
		<rect x="207.781" y="388" style="fill:#996459;" width="96" height="96"/>
	</g>
	<g>
		<path style="fill:#4BB9EC;" d="M301.781,356h-92c-1.105,0-2,0.895-2,2v30h96v-30C303.781,356.895,302.886,356,301.781,356z"/>
	</g>
	<g>
		<path style="fill:#FF4F19;" d="M329.617,68l13.039-19.562c1.633-2.453,1.789-5.609,0.398-8.211S338.953,36,336,36h-80
			c-4.422,0-8,3.578-8,8v48c0,4.422,3.578,8,8,8h80c2.953,0,5.664-1.625,7.055-4.227s1.234-5.758-0.398-8.211L329.617,68z"/>
	</g>
	<g>
		<g>
			<path style="fill:#5C546A;" d="M256,140c-4.422,0-8-3.578-8-8V28c0-4.422,3.578-8,8-8s8,3.578,8,8v104
				C264,136.422,260.422,140,256,140z"/>
		</g>
	</g>
	<g>
		<path style="fill:#FF4F19;" d="M288.391,168.938c1.234-2.992,4.156-4.938,7.391-4.938h152c2.734,0,5.281,1.398,6.75,3.703l56,88
			c1.57,2.469,1.664,5.586,0.266,8.148c-1.406,2.555-4.094,4.148-7.016,4.148h-120c-2.125,0-4.156-0.844-5.656-2.344l-88-88
			C287.836,175.367,287.148,171.93,288.391,168.938z"/>
	</g>
	<g>
		<path style="fill:#FF4F19;" d="M223.391,168.938C222.156,165.945,219.234,164,216,164H64c-2.734,0-5.281,1.398-6.75,3.703l-56,88
			c-1.57,2.469-1.664,5.586-0.266,8.148C2.391,266.406,5.078,268,8,268h120c2.125,0,4.156-0.844,5.656-2.344l88-88
			C223.945,175.367,224.633,171.93,223.391,168.938z"/>
	</g>
	<g>
		<g>
			<path style="fill:#E3001E;" d="M391.891,275.891c-2.047,0-4.094-0.781-5.656-2.344L256,143.313L125.766,273.547
				c-3.125,3.125-8.188,3.125-11.313,0s-3.125-8.188,0-11.313l135.891-135.891c3.125-3.125,8.188-3.125,11.313,0l135.891,135.891
				c3.125,3.125,3.125,8.188,0,11.313C395.984,275.109,393.938,275.891,391.891,275.891z"/>
		</g>
	</g>
	<g>
		<circle style="fill:#FFEBB7;" cx="256.001" cy="268" r="48"/>
	</g>
	<g>
		<path style="fill:#5C546A;" d="M256,236c-4.422,0-8,3.578-8,8v16h-16c-4.422,0-8,3.578-8,8s3.578,8,8,8h24c4.422,0,8-3.578,8-8
			v-24C264,239.578,260.422,236,256,236z"/>
	</g>
	<g>
		<g>
			<path style="fill:#4BB9EC;" d="M375.781,320c0-11.046-8.954-20-20-20s-20,8.954-20,20c0,1.37,0.141,2.707,0.403,4h-0.403v32h40
				v-32h-0.403C375.641,322.707,375.781,321.37,375.781,320z"/>
		</g>
		<g>
			<path style="fill:#7E5C62;" d="M356,292c-15.438,0-28,12.562-28,28v36c0,4.422,3.578,8,8,8h40c4.422,0,8-3.578,8-8v-36
				C384,304.562,371.438,292,356,292z M356,308c6.617,0,12,5.383,12,12v4h-24v-4C344,313.383,349.383,308,356,308z M344,348v-8h24v8
				H344z"/>
		</g>
	</g>
	<g>
		<g>
			<rect x="136.001" y="396" style="fill:#4BB9EC;" width="40" height="48"/>
		</g>
		<g>
			<path style="fill:#7E5C62;" d="M176,388h-40c-4.422,0-8,3.578-8,8v48c0,4.422,3.578,8,8,8h40c4.422,0,8-3.578,8-8v-48
				C184,391.578,180.422,388,176,388z M168,404v8h-24v-8H168z M144,436v-8h24v8H144z"/>
		</g>
	</g>
	<g>
		<g>
			<rect x="63.782" y="396" style="fill:#4BB9EC;" width="40" height="48"/>
		</g>
		<g>
			<path style="fill:#7E5C62;" d="M103.781,388h-40c-4.422,0-8,3.578-8,8v48c0,4.422,3.578,8,8,8h40c4.422,0,8-3.578,8-8v-48
				C111.781,391.578,108.203,388,103.781,388z M95.781,404v8h-24v-8H95.781z M71.781,436v-8h24v8H71.781z"/>
		</g>
	</g>
	<g>
		<g>
			<rect x="408" y="396" style="fill:#4BB9EC;" width="40" height="48"/>
		</g>
		<g>
			<path style="fill:#7E5C62;" d="M448,388h-40c-4.422,0-8,3.578-8,8v48c0,4.422,3.578,8,8,8h40c4.422,0,8-3.578,8-8v-48
				C456,391.578,452.422,388,448,388z M440,404v8h-24v-8H440z M416,436v-8h24v8H416z"/>
		</g>
	</g>
	<g>
		<g>
			<rect x="335.782" y="396" style="fill:#4BB9EC;" width="40" height="48"/>
		</g>
		<g>
			<path style="fill:#7E5C62;" d="M375.781,388h-40c-4.422,0-8,3.578-8,8v48c0,4.422,3.578,8,8,8h40c4.422,0,8-3.578,8-8v-48
				C383.781,391.578,380.203,388,375.781,388z M367.781,404v8h-24v-8H367.781z M343.781,436v-8h24v8H343.781z"/>
		</g>
	</g>
	<g>
		<g>
			<path style="fill:#4BB9EC;" d="M447.563,320c0-11.046-8.954-20-20-20s-20,8.954-20,20c0,1.37,0.141,2.707,0.403,4h-0.403v32h40
				v-32h-0.403C447.422,322.707,447.563,321.37,447.563,320z"/>
		</g>
		<g>
			<path style="fill:#7E5C62;" d="M427.781,292c-15.438,0-28,12.562-28,28v36c0,4.422,3.578,8,8,8h40c4.422,0,8-3.578,8-8v-36
				C455.781,304.562,443.219,292,427.781,292z M427.781,308c6.617,0,12,5.383,12,12v4h-24v-4
				C415.781,313.383,421.164,308,427.781,308z M415.781,348v-8h24v8H415.781z"/>
		</g>
	</g>
	<g>
		<g>
			<path style="fill:#4BB9EC;" d="M103.563,320c0-11.046-8.954-20-20-20s-20,8.954-20,20c0,1.37,0.141,2.707,0.403,4h-0.403v32h40
				v-32h-0.403C103.422,322.707,103.563,321.37,103.563,320z"/>
		</g>
		<g>
			<path style="fill:#7E5C62;" d="M83.781,292c-15.438,0-28,12.562-28,28v36c0,4.422,3.578,8,8,8h40c4.422,0,8-3.578,8-8v-36
				C111.781,304.562,99.219,292,83.781,292z M83.781,308c6.617,0,12,5.383,12,12v4h-24v-4C71.781,313.383,77.164,308,83.781,308z
				 M71.781,348v-8h24v8H71.781z"/>
		</g>
	</g>
	<g>
		<g>
			<path style="fill:#4BB9EC;" d="M175.344,320c0-11.046-8.954-20-20-20s-20,8.954-20,20c0,1.37,0.141,2.707,0.403,4h-0.403v32h40
				v-32h-0.403C175.203,322.707,175.344,321.37,175.344,320z"/>
		</g>
		<g>
			<path style="fill:#7E5C62;" d="M155.563,292c-15.438,0-28,12.562-28,28v36c0,4.422,3.578,8,8,8h40c4.422,0,8-3.578,8-8v-36
				C183.563,304.562,171,292,155.563,292z M155.563,308c6.617,0,12,5.383,12,12v4h-24v-4C143.563,313.383,148.945,308,155.563,308z
				 M143.563,348v-8h24v8H143.563z"/>
		</g>
	</g>
	<g>
		<path style="fill:#7E5C62;" d="M256,324c-30.879,0-56-25.121-56-56s25.121-56,56-56s56,25.121,56,56S286.879,324,256,324z
			 M256,228c-22.055,0-40,17.943-40,40s17.945,40,40,40s40-17.943,40-40S278.055,228,256,228z"/>
	</g>
	<g>
		<path style="fill:#7E5C62;" d="M288,348h-64c-13.234,0-24,10.766-24,24v112c0,4.422,3.578,8,8,8s8-3.578,8-8v-88h31.781v88h16v-88
			H296v88c0,4.422,3.578,8,8,8s8-3.578,8-8V372C312,358.766,301.234,348,288,348z M296,380h-80v-8c0-4.414,3.586-8,8-8h64
			c4.414,0,8,3.586,8,8V380z"/>
	</g>
	<g>
		<g>
			<path style="fill:#5C546A;" d="M504,492H8c-4.422,0-8-3.578-8-8s3.578-8,8-8h496c4.422,0,8,3.578,8,8S508.422,492,504,492z"/>
		</g>
	</g>
</g>

<!-- set-square -->
<g class="sprite" id="set-square">
		<g>
		<path style="fill:#FFD788;" d="M502.008,397.838L24.773,84.651c-4.922-3.234-11.203-3.496-16.375-0.695
			C3.219,86.752,0,92.147,0,98.034v313.18c0,8.824,7.18,16,16,16h477.226c7.125,0,13.289-4.59,15.328-11.418
			C510.601,408.967,507.969,401.748,502.008,397.838z M279.055,347.213H80V216.584L279.055,347.213z"/>
	</g>
	<g>
		<path style="fill:#E6BE8A;" d="M264,395.213c-4.422,0-8,3.582-8,8v24h16v-24C272,398.795,268.422,395.213,264,395.213z"/>
	</g>
	<g>
		<path style="fill:#C9A07C;" d="M296,379.213c-4.422,0-8,3.582-8,8v40h16v-40C304,382.795,300.422,379.213,296,379.213z"/>
	</g>
	<g>
		<path style="fill:#E6BE8A;" d="M144,427.213v-24c0-4.418-3.578-8-8-8s-8,3.582-8,8v24H144z"/>
	</g>
	<g>
		<path style="fill:#E6BE8A;" d="M392,395.213c-4.422,0-8,3.582-8,8v24h16v-24C400,398.795,396.422,395.213,392,395.213z"/>
	</g>
	<g>
		<path style="fill:#C9A07C;" d="M360,379.213c-4.422,0-8,3.582-8,8v40h16v-40C368,382.795,364.422,379.213,360,379.213z"/>
	</g>
	<g>
		<path style="fill:#E6BE8A;" d="M328,395.213c-4.422,0-8,3.582-8,8v24h16v-24C336,398.795,332.422,395.213,328,395.213z"/>
	</g>
	<g>
		<path style="fill:#E6BE8A;" d="M208,403.213c0-4.418-3.578-8-8-8s-8,3.582-8,8v24h16V403.213z"/>
	</g>
	<g>
		<path style="fill:#C9A07C;" d="M40,379.213c-4.422,0-8,3.582-8,8v40h16v-40C48,382.795,44.422,379.213,40,379.213z"/>
	</g>
	<g>
		<path style="fill:#E6BE8A;" d="M72,395.213c-4.422,0-8,3.582-8,8v24h16v-24C80,398.795,76.422,395.213,72,395.213z"/>
	</g>
	<g>
		<path style="fill:#C9A07C;" d="M176,387.213c0-4.418-3.578-8-8-8s-8,3.582-8,8v40h16V387.213z"/>
	</g>
	<g>
		<path style="fill:#C9A07C;" d="M424,379.213c-4.422,0-8,3.582-8,8v40h16v-40C432,382.795,428.422,379.213,424,379.213z"/>
	</g>
	<g>
		<path style="fill:#C9A07C;" d="M240,387.213c0-4.418-3.578-8-8-8s-8,3.582-8,8v40h16V387.213z"/>
	</g>
	<g>
		<path style="fill:#C9A07C;" d="M112,387.213c0-4.418-3.578-8-8-8s-8,3.582-8,8v40h16V387.213z"/>
	</g>
</g>

<!-- student -->
<g class="sprite" id="student">
	<g>
		<rect x="199.804" y="312.044" style="fill:#FCB47E;" width="112" height="104"/>
	</g>
	<g>
		<path style="fill:#4296D9;" d="M288.024,417.989c-19.236,12.231-32.001,14.055-32.001,14.055s-12.762-1.823-31.994-14.05
			c0,0-11.558-29.283-8.225-25.95c3.333,3.333,40.219,0,40.219,0l31.781,8L288.024,417.989z"/>
	</g>
	<g>
		<path style="fill:#996459;" d="M351.804,352.044l83.264,14.023c33.525,9.393,52.955,42.297,52.955,73.12v51.842
			c0,11.606-10.745,21.015-24,21.015h-416c-13.255,0-24-9.409-24-21.015v-51.842c0-30.823,19.43-63.727,52.955-73.12l82.826-14.023
			l96.219,40L351.804,352.044z"/>
	</g>
	<g>
		<path style="fill:#7E5C62;" d="M122.6,358.343c0.124,0.256,0.123,0.55,0.275,0.794c60.82,98.078,120.031,111.047,126.578,112.195
			l5.18,0.914c0.461,0.086,0.922,0.125,1.391,0.125c0.469,0,0.93-0.039,1.391-0.125l5.18-0.914
			c6.547-1.148,65.758-14.117,126.578-112.195c0.145-0.233,0.139-0.513,0.258-0.757l-37.625-6.337l-95.781,40l-96.219-40
			L122.6,358.343z"/>
	</g>
	<g>
		<path style="fill:#4BB9EC;" d="M184.024,312.044l-30.198,40l48.766,71.982c2.818,4.159,8.727,4.722,12.28,1.17l41.152-33.152
			L184.024,312.044z"/>
	</g>
	<g>
		<path style="fill:#4BB9EC;" d="M328.023,312.044l30.198,40l-48.766,71.982c-2.818,4.159-8.727,4.722-12.28,1.17l-41.152-33.152
			L328.023,312.044z"/>
	</g>
	<g>
		<path style="fill:#FFDCAD;" d="M368.212,174.564l-16.188-38.52c0,0-70-38.667-184-24h-0.219c-20.462,25.827-32,57.55-32,96
			c0,79.529,53.726,144,120,144s120-64.471,120-144c0-12.906-1.548-25.352-4.202-37.253
			C369.532,173.105,368.212,174.564,368.212,174.564z"/>
	</g>
	<g>
		<circle style="fill:#AEEFFF;" cx="207.804" cy="208.044" r="32"/>
	</g>
	<g>
		<path style="fill:#FFFFFF;" d="M207.804,176.044c-8.78,0-16.726,3.547-22.507,9.273l45.234,45.234
			c5.727-5.782,9.273-13.727,9.273-22.507C239.804,190.371,225.478,176.044,207.804,176.044z"/>
	</g>
	<g>
		<circle style="fill:#AEEFFF;" cx="303.804" cy="208.044" r="32"/>
	</g>
	<g>
		<path style="fill:#FFFFFF;" d="M304.023,176.044c-8.78,0-16.726,3.547-22.507,9.273l45.234,45.234
			c5.727-5.782,9.273-13.727,9.273-22.507C336.023,190.371,321.697,176.044,304.023,176.044z"/>
	</g>
	<g>
		<path style="fill:#7E5C62;" d="M383.343,20.818c-1.438-3.281-4.852-5.187-8.453-4.695c-20.047,2.898-44.352-2.016-70.063-7.172
			c-43.125-8.656-87.695-17.609-122.539,7.25c-0.508-0.102-1.039-0.156-1.586-0.156c-35.727,0-60.68,29.609-60.68,72
			c0,34.523,15.305,100.547,15.961,103.344c0.82,3.508,3.891,6.039,7.492,6.172c0.102,0.008,0.203,0.008,0.297,0.008
			c3.484,0,6.586-2.266,7.633-5.609l22.711-72.602c95.539-11.039,158.898,16.344,171.672,22.5l15.047,35.812
			c1.297,3.078,4.375,5.203,7.727,4.891c3.352-0.148,6.25-2.367,7.273-5.563C399.812,101.857,391.031,38.286,383.343,20.818z"/>
	</g>
	<g>
		<g>
			<path style="fill:#5C546A;" d="M272.023,216.044c-4.422,0-8-3.578-8-8c0-4.414-3.586-8-8-8c-4.414,0-8,3.586-8,8
				c0,4.422-3.578,8-8,8s-8-3.578-8-8c0-13.234,10.766-24,24-24s24,10.766,24,24C280.023,212.466,276.445,216.044,272.023,216.044z"
				/>
		</g>
	</g>
	<g>
		<g>
			<path style="fill:#5C546A;" d="M176.023,208.044h-40.219c-4.422,0-8-3.578-8-8s3.578-8,8-8h40.219c4.422,0,8,3.578,8,8
				S180.445,208.044,176.023,208.044z"/>
		</g>
	</g>
	<g>
		<g>
			<path style="fill:#5C546A;" d="M375.804,208.044h-39.781c-4.422,0-8-3.578-8-8s3.578-8,8-8h39.781c4.422,0,8,3.578,8,8
				S380.226,208.044,375.804,208.044z"/>
		</g>
	</g>
	<g>
		<g>
			<path style="fill:#868491;" d="M208.023,248.044c-22.055,0-40-17.945-40-40s17.945-40,40-40s40,17.945,40,40
				S230.078,248.044,208.023,248.044z M208.023,184.044c-13.234,0-24,10.766-24,24s10.766,24,24,24s24-10.766,24-24
				S221.257,184.044,208.023,184.044z"/>
		</g>
	</g>
	<g>
		<g>
			<path style="fill:#868491;" d="M304.023,248.044c-22.055,0-40-17.945-40-40s17.945-40,40-40s40,17.945,40,40
				S326.078,248.044,304.023,248.044z M304.023,184.044c-13.234,0-24,10.766-24,24s10.766,24,24,24s24-10.766,24-24
				S317.257,184.044,304.023,184.044z"/>
		</g>
	</g>
	<g>
		<path style="fill:#7E5C62;" d="M104.023,512.044v-53.492c0-19.234-7.492-37.312-21.086-50.906l-29.559-29.559
			c-4.24,3.317-8.071,7.07-11.44,11.185l29.687,29.687c10.578,10.578,16.398,24.641,16.398,39.594v53.492L104.023,512.044
			L104.023,512.044z"/>
	</g>
	<g>
		<path style="fill:#7E5C62;" d="M458.668,378.086l-29.559,29.559c-13.602,13.594-21.086,31.672-21.086,50.906v53.492h16v-53.492
			c0-14.953,5.82-29.016,16.398-39.594l29.688-29.688C466.74,385.156,462.908,381.404,458.668,378.086z"/>
	</g>
</g>

<!-- university -->
<g class="sprite" id="university">
	<g>
		<path style="fill:#FF4F19;" d="M304.945,144l6.211-12.422c1.242-2.477,1.109-5.422-0.352-7.781
			c-1.46-2.36-4.031-3.797-6.804-3.797h-48c-4.422,0-8,3.578-8,8v32c0,4.422,3.578,8,8,8h48c2.773,0,5.344-1.438,6.805-3.797
			s1.594-5.305,0.352-7.781L304.945,144z"/>
	</g>
	<g>
		<g>
			<path style="fill:#5C546A;" d="M256,192c-4.422,0-8-3.578-8-8v-64c0-4.422,3.578-8,8-8s8,3.578,8,8v64
				C264,188.422,260.422,192,256,192z"/>
		</g>
	</g>
	<g>
		<rect x="360" y="272" style="fill:#868491;" width="128" height="112"/>
	</g>
	<g>
		<rect x="24" y="272" style="fill:#868491;" width="128" height="112"/>
	</g>
	<g>
		<g>
			<path style="fill:#B4B6BC;" d="M344,280h144c4.422,0,8-3.578,8-8s-3.578-8-8-8H344c-4.422,0-8,3.578-8,8S339.578,280,344,280z"/>
		</g>
	</g>
	<g>
		<g>
			<path style="fill:#B4B6BC;" d="M168,280H24c-4.422,0-8-3.578-8-8s3.578-8,8-8h144c4.422,0,8,3.578,8,8S172.422,280,168,280z"/>
		</g>
	</g>
	<g>
		<g>
			<g>
				<path style="fill:#5C546A;" d="M384,368c4.422,0,8-3.578,8-8v-8c0-4.422-3.578-8-8-8s-8,3.578-8,8v8
					C376,364.422,379.578,368,384,368z"/>
			</g>
		</g>
		<g>
			<g>
				<path style="fill:#5C546A;" d="M408,368c4.422,0,8-3.578,8-8v-8c0-4.422-3.578-8-8-8s-8,3.578-8,8v8
					C400,364.422,403.578,368,408,368z"/>
			</g>
		</g>
		<g>
			<g>
				<path style="fill:#5C546A;" d="M432,368c4.422,0,8-3.578,8-8v-8c0-4.422-3.578-8-8-8s-8,3.578-8,8v8
					C424,364.422,427.578,368,432,368z"/>
			</g>
		</g>
		<g>
			<g>
				<path style="fill:#5C546A;" d="M456,368c4.422,0,8-3.578,8-8v-8c0-4.422-3.578-8-8-8s-8,3.578-8,8v8
					C448,364.422,451.578,368,456,368z"/>
			</g>
		</g>
		<g>
			<g>
				<path style="fill:#5C546A;" d="M384,336c4.422,0,8-3.578,8-8v-24c0-4.422-3.578-8-8-8s-8,3.578-8,8v24
					C376,332.422,379.578,336,384,336z"/>
			</g>
		</g>
		<g>
			<g>
				<path style="fill:#5C546A;" d="M408,336c4.422,0,8-3.578,8-8v-24c0-4.422-3.578-8-8-8s-8,3.578-8,8v24
					C400,332.422,403.578,336,408,336z"/>
			</g>
		</g>
		<g>
			<g>
				<path style="fill:#5C546A;" d="M432,336c4.422,0,8-3.578,8-8v-24c0-4.422-3.578-8-8-8s-8,3.578-8,8v24
					C424,332.422,427.578,336,432,336z"/>
			</g>
		</g>
		<g>
			<g>
				<path style="fill:#5C546A;" d="M456,336c4.422,0,8-3.578,8-8v-24c0-4.422-3.578-8-8-8s-8,3.578-8,8v24
					C448,332.422,451.578,336,456,336z"/>
			</g>
		</g>
	</g>
	<g>
		<polygon style="fill:#B4B6BC;" points="152,244.266 360,244.266 256,188.804 		"/>
	</g>
	<g>
		<rect x="159.781" y="248" style="fill:#868491;" width="192" height="144"/>
	</g>
	<g>
		<g>
			<path style="fill:#B4B6BC;" d="M256,400c-4.422,0-8-3.578-8-8V248c0-4.422,3.578-8,8-8s8,3.578,8,8v144
				C264,396.422,260.422,400,256,400z"/>
		</g>
	</g>
	<g>
		<g>
			<path style="fill:#B4B6BC;" d="M224,400c-4.422,0-8-3.578-8-8V248c0-4.422,3.578-8,8-8s8,3.578,8,8v144
				C232,396.422,228.422,400,224,400z"/>
		</g>
	</g>
	<g>
		<g>
			<path style="fill:#B4B6BC;" d="M192,400c-4.422,0-8-3.578-8-8V248c0-4.422,3.578-8,8-8s8,3.578,8,8v144
				C200,396.422,196.422,400,192,400z"/>
		</g>
	</g>
	<g>
		<g>
			<path style="fill:#B4B6BC;" d="M320,400c-4.422,0-8-3.578-8-8V248c0-4.422,3.578-8,8-8s8,3.578,8,8v144
				C328,396.422,324.422,400,320,400z"/>
		</g>
	</g>
	<g>
		<g>
			<path style="fill:#B4B6BC;" d="M288,400c-4.422,0-8-3.578-8-8V248c0-4.422,3.578-8,8-8s8,3.578,8,8v144
				C296,396.422,292.422,400,288,400z"/>
		</g>
	</g>
	<g>
		<g>
			<path style="fill:#B4B6BC;" d="M352,400c-4.422,0-8-3.578-8-8V248c0-4.422,3.578-8,8-8s8,3.578,8,8v144
				C360,396.422,356.422,400,352,400z"/>
		</g>
	</g>
	<g>
		<g>
			<path style="fill:#B4B6BC;" d="M160,400c-4.422,0-8-3.578-8-8V248c0-4.422,3.578-8,8-8s8,3.578,8,8v144
				C168,396.422,164.422,400,160,400z"/>
		</g>
	</g>
	<g>
		<g>
			<path style="fill:#868491;" d="M376,256H136c-3.672,0-6.867-2.5-7.758-6.063c-0.891-3.555,0.758-7.266,3.992-9l120-64
				c2.359-1.25,5.172-1.25,7.531,0l120,64c3.234,1.734,4.883,5.445,3.992,9C382.867,253.5,379.672,256,376,256z M168,240h176
				l-88-46.93L168,240z"/>
		</g>
	</g>
	<g>
		<g>
			<g>
				<path style="fill:#5C546A;" d="M128,368c-4.422,0-8-3.578-8-8v-8c0-4.422,3.578-8,8-8s8,3.578,8,8v8
					C136,364.422,132.422,368,128,368z"/>
			</g>
		</g>
		<g>
			<g>
				<path style="fill:#5C546A;" d="M104,368c-4.422,0-8-3.578-8-8v-8c0-4.422,3.578-8,8-8s8,3.578,8,8v8
					C112,364.422,108.422,368,104,368z"/>
			</g>
		</g>
		<g>
			<g>
				<path style="fill:#5C546A;" d="M80,368c-4.422,0-8-3.578-8-8v-8c0-4.422,3.578-8,8-8s8,3.578,8,8v8
					C88,364.422,84.422,368,80,368z"/>
			</g>
		</g>
		<g>
			<g>
				<path style="fill:#5C546A;" d="M56,368c-4.422,0-8-3.578-8-8v-8c0-4.422,3.578-8,8-8s8,3.578,8,8v8
					C64,364.422,60.422,368,56,368z"/>
			</g>
		</g>
		<g>
			<g>
				<path style="fill:#5C546A;" d="M128,336c-4.422,0-8-3.578-8-8v-24c0-4.422,3.578-8,8-8s8,3.578,8,8v24
					C136,332.422,132.422,336,128,336z"/>
			</g>
		</g>
		<g>
			<g>
				<path style="fill:#5C546A;" d="M104,336c-4.422,0-8-3.578-8-8v-24c0-4.422,3.578-8,8-8s8,3.578,8,8v24
					C112,332.422,108.422,336,104,336z"/>
			</g>
		</g>
		<g>
			<g>
				<path style="fill:#5C546A;" d="M80,336c-4.422,0-8-3.578-8-8v-24c0-4.422,3.578-8,8-8s8,3.578,8,8v24
					C88,332.422,84.422,336,80,336z"/>
			</g>
		</g>
		<g>
			<g>
				<path style="fill:#5C546A;" d="M56,336c-4.422,0-8-3.578-8-8v-24c0-4.422,3.578-8,8-8s8,3.578,8,8v24
					C64,332.422,60.422,336,56,336z"/>
			</g>
		</g>
	</g>
	<g>
		<g>
			<path style="fill:#868491;" d="M271.781,232h-31.562c-4.422,0-8-3.578-8-8s3.578-8,8-8h31.562c4.422,0,8,3.578,8,8
				S276.203,232,271.781,232z"/>
		</g>
	</g>
	<g>
		<g>
			<path style="fill:#5C546A;" d="M504,400H8c-4.422,0-8-3.578-8-8s3.578-8,8-8h496c4.422,0,8,3.578,8,8S508.422,400,504,400z"/>
		</g>
	</g>
</g>

<defs>
	<style><![CDATA[
		.sprite { display: none; }
		.sprite:target { display: inline; }
	]]></style>
</defs>

</svg>